<svg width="581" height="256" viewBox="0 0 581 256" fill="none" xmlns="http://www.w3.org/2000/svg">
<g clip-path="url(#clip0_1323_5913)">
<rect width="581" height="256" rx="12" fill="#F9FBFF"/>
<path d="M540.514 237.495C543.282 235.856 546.254 234.587 549.352 233.72L551.168 225.115L565.926 224.869L568.047 233.392C571.178 234.165 574.193 235.347 577.014 236.909L584.469 232.102L595.089 242.196L590.471 249.698C592.136 252.411 593.425 255.337 594.304 258.396L603.048 260.178L603.306 274.714L594.632 276.801C593.859 279.887 592.677 282.856 591.115 285.628L596.003 292.967L585.759 303.377L578.128 298.828C575.363 300.467 572.396 301.736 569.302 302.603L567.485 311.208L552.716 311.454L550.594 302.919C547.47 302.165 544.459 301.002 541.639 299.461L534.172 304.268L523.553 294.174L528.241 286.672C526.577 283.957 525.284 281.031 524.397 277.973L515.664 276.192L515.406 261.655L524.068 259.557C524.844 256.475 526.026 253.511 527.585 250.741L522.697 243.403L532.953 232.946L540.572 237.495H540.514ZM549.891 255.489C547.995 256.962 546.468 258.857 545.433 261.023C544.397 263.19 543.88 265.567 543.923 267.968C543.966 270.369 544.568 272.727 545.682 274.854C546.795 276.982 548.389 278.82 550.336 280.224C553.153 282.272 556.559 283.346 560.04 283.285C563.521 283.223 566.887 282.03 569.63 279.884C571.526 278.411 573.052 276.516 574.088 274.35C575.124 272.184 575.641 269.806 575.598 267.405C575.555 265.004 574.952 262.647 573.839 260.519C572.726 258.392 571.132 256.553 569.184 255.149C566.37 253.107 562.969 252.036 559.493 252.098C556.016 252.159 552.655 253.349 549.914 255.489H549.891Z" fill="#E9E9E9"/>
<path d="M-26.2864 -74.9407C-23.2046 -76.7749 -19.8939 -78.194 -16.4404 -79.1609L-14.3891 -88.7619L2.02094 -89.0081L4.36524 -79.4892C7.85094 -78.6483 11.2093 -77.3474 14.3519 -75.6206L22.6742 -80.9897L34.5129 -69.7358L29.3671 -61.3657C31.2314 -58.3553 32.6785 -55.1058 33.6689 -51.7062L43.4212 -49.7133L43.7025 -33.5124L34.044 -31.1679C33.1818 -27.7282 31.861 -24.4201 30.1173 -21.3325L35.5678 -13.1265L24.1276 -1.40375L15.6296 -6.47971C12.5477 -4.64846 9.23688 -3.23333 5.78354 -2.27122L3.75571 7.318L-12.713 7.61107L-15.0573 -1.90782C-18.543 -2.74869 -21.9013 -4.04961 -25.0439 -5.77634L-33.3662 -0.40731L-45.2049 -11.6612L-40.0474 -20.0312C-41.9086 -23.0528 -43.348 -26.3145 -44.3258 -29.726L-54.0663 -31.7188L-54.3711 -47.9783L-44.7009 -50.3229C-43.8417 -53.7598 -42.5208 -57.0644 -40.7742 -60.1466L-46.2247 -68.3525L-34.7962 -80.005L-26.2864 -74.9407ZM-15.8192 -54.8831C-17.9324 -53.2405 -19.6338 -51.1279 -20.7881 -48.713C-21.9425 -46.298 -22.518 -43.6472 -22.4691 -40.9709C-22.4202 -38.2946 -21.7481 -35.6666 -20.5063 -33.2954C-19.2645 -30.9242 -17.487 -28.8753 -15.3151 -27.3111C-12.1782 -25.0226 -8.37996 -23.8209 -4.49772 -23.8886C-0.615475 -23.9563 3.13852 -25.2897 6.19378 -27.6862C8.30784 -29.3291 10.01 -31.442 11.1654 -33.8574C12.3207 -36.2728 12.8973 -38.9242 12.8495 -41.6013C12.8017 -44.2784 12.1309 -46.9075 10.8901 -49.2801C9.64932 -51.6527 7.87282 -53.7036 5.70148 -55.2699C2.55974 -57.552 -1.23921 -58.7496 -5.12157 -58.682C-9.00393 -58.6143 -12.7588 -57.285 -15.8192 -54.8948V-54.8831Z" fill="#E9E9E9"/>
<path d="M219.299 144.92H-58.7225C-68.3552 144.92 -76.1641 152.73 -76.1641 162.363V359.892C-76.1641 369.526 -68.3552 377.336 -58.7225 377.336H219.299C228.932 377.336 236.741 369.526 236.741 359.892V162.363C236.741 152.73 228.932 144.92 219.299 144.92Z" fill="white"/>
<path d="M-61.3638 144.919H220.139C224.725 144.919 229.122 146.741 232.365 149.983C235.607 153.226 237.428 157.624 237.428 162.21V185.656H-75.5351V159.033C-75.5413 157.173 -75.1786 155.33 -74.4679 153.611C-73.7572 151.892 -72.7127 150.331 -71.3948 149.018C-70.0768 147.706 -68.5116 146.667 -66.7898 145.964C-65.068 145.26 -63.2238 144.905 -61.3638 144.919Z" fill="#E0E0E0"/>
<path d="M220.029 377.348L220.721 377.289C221.401 377.273 222.08 377.203 222.749 377.078C226.238 376.514 229.472 374.902 232.024 372.456C234.576 370.011 236.324 366.848 237.037 363.386C237.389 360.634 237.499 357.857 237.365 355.086C237.365 352.108 237.365 348.932 237.365 345.579C237.365 318.71 237.365 279.838 237.272 231.809C237.272 219.805 237.272 207.242 237.272 194.121C237.272 187.571 237.272 180.886 237.272 174.063V163.747C237.327 162.024 237.182 160.301 236.838 158.612C236.061 155.195 234.267 152.093 231.692 149.715C230.401 148.513 228.925 147.527 227.32 146.796C225.709 146.037 223.988 145.539 222.221 145.319C220.42 145.177 218.612 145.13 216.806 145.178H194.535H148.141H-58.4379H-60.1961C-60.7587 145.178 -61.3683 145.178 -61.884 145.272C-62.9983 145.407 -64.0948 145.663 -65.1543 146.034C-67.2707 146.768 -69.1942 147.971 -70.7813 149.552C-72.3683 151.133 -73.5781 153.052 -74.3205 155.166C-74.6968 156.216 -74.9524 157.305 -75.0824 158.413C-75.1864 159.527 -75.2256 160.647 -75.1996 161.766V188.728C-75.1996 206.586 -75.1996 224.17 -75.1996 241.481C-75.1996 276.039 -75.1996 309.379 -75.1996 341.124V358.802C-75.1996 359.787 -75.1996 360.736 -75.1058 361.686L-74.8949 363.104C-74.8128 363.573 -74.6604 364.031 -74.5549 364.488C-73.5309 368.166 -71.3072 371.397 -68.237 373.667C-66.7267 374.78 -65.0492 375.647 -63.2671 376.234C-61.4836 376.77 -59.6321 377.046 -57.7698 377.055H-14.0135H64.5204L178.219 377.148L64.5204 377.242H-14.0135L-57.7698 377.559C-59.6878 377.553 -61.5948 377.268 -63.4312 376.715C-66.2105 375.809 -68.7261 374.238 -70.7589 372.137C-72.7918 370.037 -74.2801 367.471 -75.0941 364.664C-75.1996 364.183 -75.352 363.714 -75.434 363.222L-75.6567 361.768C-75.7154 360.783 -75.774 359.799 -75.7622 358.826V341.148C-75.7622 309.391 -75.7622 276.051 -75.7622 241.504V161.86C-75.7872 160.717 -75.7481 159.574 -75.645 158.436C-75.5102 157.288 -75.2427 156.159 -74.848 155.072C-74.0789 152.871 -72.8222 150.873 -71.172 149.227C-69.5218 147.581 -67.5207 146.329 -65.3184 145.565C-64.2159 145.185 -63.0766 144.922 -61.9192 144.779C-61.3448 144.721 -60.747 144.721 -60.1844 144.686H-58.4613H148.118H216.736C218.562 144.637 220.389 144.688 222.209 144.838C224.025 145.061 225.794 145.572 227.449 146.35C229.104 147.107 230.624 148.129 231.95 149.375C233.282 150.584 234.413 151.996 235.302 153.56C236.199 155.103 236.851 156.776 237.236 158.519C237.59 160.242 237.735 162.001 237.67 163.759V174.075C237.67 180.882 237.67 187.568 237.67 194.132C237.67 207.238 237.67 219.801 237.67 231.821C237.67 279.884 237.6 318.722 237.576 345.591C237.576 348.943 237.576 352.12 237.576 355.098C237.701 357.882 237.575 360.671 237.201 363.433C236.298 367.769 233.785 371.602 230.168 374.159C227.968 375.724 225.43 376.748 222.76 377.148C222.086 377.262 221.404 377.325 220.721 377.336L220.029 377.348Z" fill="#263238"/>
<path d="M40.1865 125.12C36.3184 122.658 35.3807 116.914 37.4788 112.858C39.577 108.802 44.0429 106.293 48.5673 105.566C51.8645 105.061 55.2346 105.345 58.4009 106.394C61.5673 107.443 64.4397 109.229 66.7825 111.604C69.2792 114.171 71.307 117.535 74.7062 118.719C77.6835 119.751 80.9889 118.813 84.0834 119.223C88.2797 119.774 91.8782 122.74 94.035 126.398C96.0301 130.144 97.2274 134.263 97.5514 138.496C98.0085 142.352 98.3133 146.596 100.986 149.41C103.658 152.223 107.726 152.739 110.972 154.685C113.953 156.648 116.046 159.701 116.805 163.189C117.563 166.677 116.925 170.324 115.028 173.347C113.739 175.223 111.898 176.935 111.746 179.209C111.605 181.272 112.918 183.124 113.575 185.07C115.192 190.158 111.019 196.207 105.686 196.512C102.99 196.664 100.107 195.621 97.7038 196.828C95.3009 198.036 94.41 200.908 92.8745 203.112C91.3004 205.236 89.044 206.756 86.4834 207.415C83.9227 208.075 81.2132 207.834 78.8087 206.734C76.8278 205.761 74.9524 204.167 72.7605 204.307C70.5686 204.448 68.8338 206.335 66.6653 206.757C63.8404 207.297 61.1562 205.21 59.4683 202.877C57.7804 200.544 56.62 197.778 54.4632 195.843C51.6501 193.335 47.6882 192.713 44.1249 191.483C40.1723 190.123 36.5579 187.929 33.5263 185.051C30.4946 182.173 28.1165 178.677 26.5528 174.8C24.9891 170.923 24.2763 166.756 24.4626 162.58C24.6489 158.403 25.73 154.316 27.6328 150.594" fill="#263238"/>
<path d="M81.2039 175.82C82.0757 174.889 83.1564 174.177 84.357 173.745H84.0639C84.2871 173.688 84.5144 173.649 84.7438 173.628C85.1514 173.51 85.5789 173.475 86.0001 173.528C86.4214 173.58 86.8275 173.718 87.1936 173.933C88.5665 174.421 89.705 175.409 90.3818 176.7C90.9082 177.845 91.111 179.112 90.9685 180.364C90.8259 181.617 90.3433 182.806 89.573 183.804C89.0132 184.709 88.1928 185.423 87.2195 185.853C86.2462 186.283 85.1656 186.409 84.1196 186.214C83.0736 186.018 82.1111 185.511 81.3586 184.759C80.606 184.007 80.0985 183.044 79.9028 181.998C79.583 180.942 79.5346 179.822 79.762 178.743C79.9894 177.663 80.4853 176.658 81.2039 175.82Z" fill="#455A64"/>
<path d="M29.8133 212.583L25.9335 141.414C25.8547 139.808 26.3821 138.231 27.4112 136.996C28.4402 135.76 29.8958 134.957 31.4895 134.744L65.3177 125.167C76.1952 123.701 83.8259 136.889 84.8222 147.862C85.9944 159.995 86.8149 174.824 85.631 183.98C83.2867 202.314 68.2363 205.081 68.2363 205.081C68.2363 205.081 68.1308 209.699 68.2363 216.335L61.3324 238.877L29.8133 212.583Z" fill="#FFBF9D"/>
<path d="M68.2281 205.081C59.9912 205.38 51.837 203.348 44.7031 199.219C44.7031 199.219 49.9895 212.794 68.1461 210.567L68.2281 205.081Z" fill="#FF9A6C"/>
<path d="M58.5079 128.473C56.1636 127.816 51.4751 126.316 50.3029 124.323C47.6187 119.974 42.8832 117.02 38.054 117.289C35.5504 117.484 33.1772 118.485 31.2901 120.142C29.403 121.799 28.1037 124.022 27.5867 126.48C24.5812 126.587 21.6602 127.503 19.1312 129.131C16.6022 130.758 14.5588 133.038 13.2162 135.729C12.8636 136.423 12.5581 137.14 12.3019 137.875C11.3937 139.486 10.8478 141.277 10.702 143.121C10.5563 144.966 10.8142 146.82 11.4579 148.554C12.255 150.629 13.603 152.95 12.5363 154.908C11.4696 156.865 8.69166 156.959 6.54663 157.698C4.70582 158.395 3.16703 159.714 2.19716 161.427C1.22729 163.14 0.887527 165.139 1.2368 167.076C1.52983 168.459 2.18625 169.843 1.90493 171.238C1.62361 172.633 0.369413 173.699 -0.580027 174.825C-1.76066 176.234 -2.55253 177.928 -2.87718 179.737C-3.20182 181.547 -3.04796 183.41 -2.43084 185.142C-1.81372 186.874 -0.754772 188.414 0.641056 189.611C2.03688 190.808 3.72112 191.618 5.52686 191.963C7.15615 192.268 8.93781 192.198 10.3561 193.065C11.9854 194.074 12.7004 196.031 13.8725 197.555C15.004 199.005 16.55 200.075 18.3048 200.623C20.0595 201.172 21.9398 201.173 23.6952 200.627C24.3911 200.384 25.0529 200.053 25.6644 199.642C26.7662 201.166 28.4892 202.186 31.4313 202.186L30.7515 163.712C30.966 164.183 31.2911 164.595 31.6993 164.914C32.1075 165.232 32.5866 165.447 33.0958 165.54C39.273 166.935 40.1287 154.216 38.8041 150.758C41.132 148.858 43.2113 146.672 44.9931 144.252C46.7044 141.731 48.2048 134.874 47.8414 131.755C50.0685 131.896 59.516 128.766 58.5079 128.473Z" fill="#263238"/>
<path d="M32.5017 166.841C32.3141 162.937 27.52 162.093 24.1325 164.051C22.2805 165.129 20.8505 167.298 21.0264 171.448C21.4835 182.514 32.5017 179.771 32.5017 179.454C32.5017 179.138 32.6892 171.424 32.5017 166.841Z" fill="#FFBF9D"/>
<path d="M28.8965 175.398C28.8965 175.398 28.709 175.551 28.3925 175.703C27.9421 175.92 27.4254 175.953 26.9507 175.797C25.7786 175.41 24.7002 173.605 24.6064 171.6C24.5364 170.654 24.6806 169.705 25.0284 168.822C25.1186 168.474 25.2914 168.152 25.5322 167.885C25.773 167.618 26.0746 167.412 26.4115 167.286C26.6321 167.213 26.8716 167.222 27.0866 167.31C27.3016 167.398 27.4779 167.56 27.5837 167.767C27.7478 168.072 27.6892 168.294 27.7478 168.306C27.8064 168.318 27.9822 168.107 27.865 167.661C27.7994 167.387 27.6371 167.146 27.4079 166.982C27.0913 166.769 26.7057 166.685 26.3295 166.747C25.8617 166.84 25.4268 167.055 25.0686 167.37C24.7105 167.685 24.4419 168.089 24.29 168.541C23.8605 169.521 23.6755 170.591 23.7508 171.659C23.9149 173.886 25.1339 175.926 26.7632 176.348C27.0629 176.422 27.3755 176.428 27.6778 176.365C27.98 176.302 28.2643 176.172 28.5097 175.985C28.8848 175.668 28.9785 175.422 28.8965 175.398Z" fill="#FF9A6C"/>
<path d="M43.2865 125.518C42.4168 125.959 41.6591 126.593 41.0711 127.37C39.981 128.871 39.559 131.766 40.2623 135.025V135.307L39.981 135.365C38.3903 135.795 36.92 136.585 35.6841 137.675C34.4481 138.764 33.4799 140.124 32.8544 141.649C32.511 142.512 32.3167 143.428 32.28 144.357C32.308 145.338 32.4257 146.315 32.6316 147.276C32.8417 148.316 32.9826 149.37 33.0536 150.429C33.128 151.586 32.819 152.736 32.1745 153.7C30.7914 155.798 28.576 156.83 26.6771 157.826C24.7902 158.653 23.0549 159.791 21.5431 161.191C19.0347 163.647 17.5553 166.967 17.4054 170.475C17.3214 172.838 17.8206 175.185 18.8589 177.309C19.5974 178.822 20.2186 179.548 20.1483 179.654C19.9723 179.505 19.8149 179.336 19.6794 179.15C19.2656 178.638 18.9007 178.089 18.5893 177.509C17.4023 175.358 16.8039 172.931 16.8545 170.475C16.9324 166.803 18.4277 163.304 21.0274 160.71C22.5829 159.248 24.3741 158.059 26.3255 157.193C28.2361 156.197 30.3225 155.165 31.5181 153.325C32.7137 151.484 32.198 149.444 31.8698 147.463C31.6621 146.452 31.5483 145.424 31.5298 144.392C31.5704 143.377 31.7886 142.377 32.1745 141.438C32.8489 139.815 33.895 138.373 35.2285 137.229C36.5621 136.084 38.1458 135.269 39.8521 134.849L39.6411 135.201C38.9847 131.79 39.5004 128.789 40.8132 127.218C41.2698 126.616 41.8649 126.134 42.548 125.811C43.052 125.518 43.2747 125.448 43.2865 125.518Z" fill="#455A64"/>
<path d="M24.7588 179.548C25.6306 178.617 26.7113 177.905 27.9119 177.473H27.6657C27.89 177.422 28.117 177.383 28.3456 177.356C28.7555 177.241 29.1843 177.208 29.607 177.26C30.0297 177.313 30.4377 177.449 30.8071 177.661C32.1721 178.158 33.3041 179.143 33.9836 180.428C34.5125 181.572 34.7168 182.84 34.5742 184.093C34.4315 185.346 33.9475 186.535 33.1748 187.532C32.6172 188.438 31.7979 189.154 30.825 189.585C29.8522 190.017 28.7715 190.143 27.7254 189.947C26.6794 189.752 25.7172 189.244 24.9657 188.49C24.2143 187.737 23.7089 186.773 23.5163 185.726C23.1854 184.675 23.1258 183.558 23.343 182.477C23.5603 181.397 24.0473 180.39 24.7588 179.548Z" fill="#455A64"/>
<path d="M194.051 224.364C194.051 224.364 202.736 212.442 205.772 212.079C208.808 211.715 228.043 212.442 230.727 212.079C233.411 211.715 248.591 205.045 248.591 205.045C248.591 205.045 251.287 205.995 250.935 208.562C250.583 211.129 233.775 220.601 231.77 220.953C229.766 221.305 213.567 222.559 213.567 222.559L203.756 237.974L194.051 224.364Z" fill="#FFBF9D"/>
<path d="M195.104 220.567L158.427 256.72L106.337 224.119C103.407 222.294 100.092 221.178 96.6552 220.86L76.2129 218.762L68.0079 211.107L61.3384 233.11L28.5182 207.848L22.4582 219.301L0.621094 229.769L21.5557 332.66C21.5557 332.66 21.4267 334.266 16.9374 346.915C15.6011 350.702 10.5257 369.353 11.4049 377.031L68.043 377.512L126.897 377.219L116.347 341.663L110.1 314.185C111.682 280.517 112.444 275.125 110.85 266.849C110.85 266.849 145.018 286.895 161.885 288.817C164.523 289.122 171.848 285.605 175.306 281.537C189.173 265.231 213.003 235.971 213.003 235.971L195.104 220.567Z" fill="#214498"/>
<path d="M12.783 281.221L3.90981 313.962L63.6894 345.755L52.2257 369.353L-18.5017 341.218C-22.457 339.711 -25.8758 337.063 -28.3243 333.61C-31.1374 329.519 -33.2473 324.595 -30.4576 315.498L-15.2196 258.385C-14.2468 254.762 -12.594 249.006 -10.9061 244.317C-9.38292 239.866 -6.76257 235.871 -3.28718 232.7C-2.06676 231.605 -0.748428 230.624 0.651237 229.769" fill="#214498"/>
<path d="M0.627884 229.734L-0.0754051 230.214C-0.544264 230.531 -1.24755 231.011 -2.07978 231.691C-4.55996 233.693 -6.65683 236.128 -8.26871 238.877C-10.4372 242.394 -11.7852 247.283 -13.5199 252.863C-15.2547 258.443 -16.7316 264.925 -18.6657 272.053L-24.8312 295.311C-25.933 299.484 -27.0778 303.802 -28.2656 308.265C-28.8516 310.492 -29.4494 312.75 -30.0589 315.04C-30.7975 317.322 -31.2657 319.683 -31.4538 322.074C-31.6415 324.5 -31.2933 326.937 -30.434 329.213C-29.4902 331.531 -28.1539 333.668 -26.4839 335.532C-24.7296 337.426 -22.6441 338.983 -20.3301 340.127C-19.158 340.725 -17.9858 341.182 -16.6847 341.686L-12.9456 343.175L18.1163 355.519L52.3313 369.129L51.968 369.27C55.9298 361.064 59.751 353.233 63.4081 345.719L63.5253 346.059L3.82784 314.185L3.71064 314.126V313.985L10.3215 289.872L12.1032 283.483C12.3142 282.767 12.4666 282.228 12.5721 281.841C12.6776 281.455 12.7479 281.29 12.7479 281.29C12.7479 281.29 12.7479 281.478 12.6189 281.853C12.49 282.228 12.3845 282.791 12.197 283.506C11.8102 284.971 11.2476 287.128 10.5091 289.918L4.05055 314.079L3.96851 313.88L63.748 345.602L63.9708 345.719L63.8652 345.942L52.4485 369.504L52.3313 369.739L52.0852 369.645L17.8702 356.047L-13.1917 343.691L-16.9426 342.202C-18.1148 341.698 -19.4393 341.241 -20.6349 340.619C-23.0003 339.446 -25.1362 337.858 -26.941 335.93C-27.8171 334.974 -28.602 333.938 -29.2853 332.835C-29.9696 331.76 -30.5505 330.621 -31.0201 329.436C-31.8979 327.087 -32.2539 324.575 -32.0633 322.074C-31.8631 319.663 -31.3872 317.284 -30.645 314.982C-30.0355 312.696 -29.4729 310.433 -28.8282 308.218C-27.6404 303.763 -26.4683 299.445 -25.3117 295.264C-23.0729 286.917 -20.9865 279.133 -19.0759 272.029C-17.1653 264.925 -15.5595 258.49 -13.8481 252.874C-12.1368 247.259 -10.6951 242.406 -8.4797 238.866C-6.83309 236.113 -4.69104 233.688 -2.16183 231.715C-1.29193 230.974 -0.358419 230.311 0.627884 229.734Z" fill="#263238"/>
<path d="M15.8004 276.437C15.6831 276.437 16.1872 274.234 16.3982 270.67C16.5158 268.576 16.4844 266.476 16.3044 264.386C16.0607 261.835 15.6178 259.307 14.9799 256.825C14.292 254.35 13.4142 251.932 12.3542 249.592C11.4603 247.683 10.4423 245.835 9.30667 244.059C7.33746 241.046 5.79022 239.37 5.89572 239.3C6.29884 239.655 6.66773 240.048 6.99754 240.472C7.41567 240.926 7.80705 241.403 8.16969 241.902C8.60338 242.477 9.13084 243.074 9.62314 243.883C10.8337 245.636 11.9037 247.483 12.8231 249.405C15.0692 254.109 16.4244 259.188 16.8201 264.386C16.9866 266.497 16.9866 268.618 16.8201 270.728C16.8201 271.631 16.6326 272.44 16.5388 273.143C16.4606 273.754 16.351 274.361 16.2106 274.96C16.118 275.464 15.9807 275.958 15.8004 276.437Z" fill="#263238"/>
<path d="M102.527 243.285C102.939 243.757 103.304 244.267 103.617 244.809L104.168 245.641L104.743 246.696C105.234 247.534 105.676 248.399 106.067 249.287L106.771 250.823C106.982 251.385 107.204 251.995 107.439 252.546C107.919 253.718 108.283 255.031 108.728 256.379C109.561 259.361 110.211 262.391 110.674 265.453C111.449 271.017 111.778 276.635 111.658 282.251C111.658 284.408 111.553 286.143 111.471 287.351C111.465 287.973 111.402 288.593 111.283 289.203C111.233 288.583 111.233 287.959 111.283 287.339C111.283 286.167 111.283 284.397 111.283 282.251C111.27 276.663 110.878 271.082 110.111 265.546C109.661 262.512 109.034 259.506 108.236 256.543C107.802 255.195 107.474 253.882 107.064 252.722C106.853 252.124 106.642 251.549 106.442 251.01C106.243 250.471 105.997 249.955 105.774 249.463C105.376 248.466 104.93 247.611 104.602 246.849L104.075 245.794C103.899 245.477 103.735 245.196 103.571 244.926C103.175 244.411 102.826 243.862 102.527 243.285Z" fill="#263238"/>
<path d="M60.5167 234.891C60.3566 234.85 60.2028 234.787 60.0596 234.704C59.7782 234.563 59.3563 234.352 58.8171 234.059C57.2709 233.226 55.807 232.249 54.445 231.14H54.7497C51.9281 235.523 49.5935 240.201 47.7872 245.09L47.6231 245.524L47.2949 245.196L42.829 240.718C37.1441 235.02 32.0218 229.827 28.3412 226.052L23.9926 221.563L22.8204 220.308C22.677 220.172 22.551 220.018 22.4453 219.851C22.6178 219.954 22.7755 220.081 22.9142 220.226C23.2424 220.543 23.6526 220.93 24.1567 221.398L28.6343 225.759C32.3969 229.452 37.566 234.598 43.2392 240.296L47.7051 244.785L47.2128 244.891C49.0419 239.953 51.4582 235.254 54.4098 230.894L54.5387 230.695L54.7028 230.847C56.0234 231.965 57.4305 232.976 58.9108 233.872C59.4651 234.181 60.0013 234.521 60.5167 234.891Z" fill="#263238"/>
<path d="M75.8586 219.101C75.9529 219.591 75.9884 220.091 75.9641 220.59C75.9691 221.951 75.8751 223.31 75.6828 224.658C75.0471 229.137 73.4474 233.424 70.9942 237.225L70.6426 237.776L70.3964 238.151L70.1386 237.787C67.8814 234.688 66.0153 231.321 64.5826 227.764H65.0046C64.2075 229.605 63.5277 231.152 63.0002 232.36C62.7802 232.938 62.5013 233.492 62.168 234.013C62.3033 233.408 62.4996 232.819 62.754 232.254C63.2346 231.023 63.8441 229.452 64.5826 227.565L64.7819 227.038L65.0046 227.565C66.5173 231.042 68.4038 234.344 70.6309 237.412H70.1386C70.2441 237.236 70.3613 237.049 70.4902 236.873C72.884 233.133 74.506 228.952 75.2609 224.576C75.8587 221.235 75.7297 219.101 75.8586 219.101Z" fill="#263238"/>
<path d="M83.9818 334.465C83.8948 334.131 83.836 333.79 83.806 333.445C83.7122 332.719 83.595 331.734 83.4309 330.503C83.1261 327.889 82.6924 324.208 82.1532 319.671C81.0514 310.539 79.5511 297.902 76.8903 284.116C75.5423 277.223 73.9834 270.717 72.3541 264.867C71.4633 261.96 70.6896 259.17 69.7871 256.661C69.3534 255.384 68.9549 254.129 68.5329 252.957L67.2553 249.581C66.4816 247.412 65.6377 245.513 64.911 243.825L63.9264 241.48L63.0238 239.534L61.8517 236.838C61.6964 236.527 61.5633 236.206 61.4531 235.877C61.6468 236.163 61.8154 236.465 61.9571 236.779C62.2853 237.436 62.7308 238.327 63.2934 239.429L64.2428 241.351C64.5827 242.066 64.9109 242.852 65.286 243.696C66.0128 245.372 66.8919 247.271 67.7007 249.428C68.1109 250.507 68.5563 251.632 69.0135 252.804C69.4706 253.977 69.8574 255.231 70.3028 256.509C71.2288 259.053 72.0259 261.843 72.9284 264.715C74.5929 270.576 76.1753 277.094 77.5233 283.999C80.1958 297.808 81.6258 310.469 82.6221 319.624C83.1027 324.208 83.466 327.912 83.7122 330.48C83.8216 331.722 83.9037 332.707 83.9584 333.434C83.9871 333.777 83.9949 334.121 83.9818 334.465Z" fill="#263238"/>
<path d="M366.444 32.2908H215.085C211.802 32.2908 208.654 33.595 206.332 35.9166C204.011 38.2381 202.707 41.3868 202.707 44.67V167.888C202.707 171.171 204.011 174.32 206.332 176.642C208.654 178.963 211.802 180.267 215.085 180.267H234.578V205.694L260.049 180.267H366.444C369.717 180.252 372.85 178.941 375.159 176.621C377.468 174.301 378.764 171.161 378.764 167.888V44.67C378.764 41.397 377.468 38.2571 375.159 35.9372C372.85 33.6173 369.717 32.3063 366.444 32.2908Z" fill="white"/>
<path d="M366.439 32.2909C366.439 32.2909 366.885 32.2909 367.776 32.2909C369.078 32.43 370.352 32.77 371.55 33.299C373.516 34.1774 375.22 35.5507 376.496 37.2848C377.308 38.393 377.937 39.6238 378.36 40.9305C378.793 42.4343 378.982 43.9974 378.923 45.561C378.923 58.7609 378.923 77.9394 379.017 101.901C379.017 113.893 379.017 127.081 379.017 141.313C379.017 148.432 379.017 155.806 379.017 163.434V166.294C379.017 167.255 379.017 168.228 378.946 169.213C378.729 171.216 378.037 173.138 376.928 174.82C375.819 176.502 374.325 177.895 372.57 178.884C370.776 179.889 368.764 180.44 366.709 180.49H260.044L260.255 180.396L234.784 205.823L234.268 206.351V180.291L234.573 180.596H216.006C213.094 180.772 210.207 179.972 207.801 178.321C205.43 176.668 203.69 174.258 202.866 171.487C202.48 170.119 202.306 168.7 202.35 167.279V138.581C202.35 117.011 202.35 96.1917 202.35 76.3685C202.35 66.451 202.35 56.7915 202.35 47.3898C202.35 46.2175 202.35 45.0453 202.35 43.873C202.409 42.6701 202.654 41.4836 203.077 40.3561C203.882 38.1625 205.278 36.2345 207.111 34.7861C208.944 33.3376 211.142 32.4253 213.462 32.1502C214.585 32.0609 215.712 32.0296 216.838 32.0564H220.155H269.198L340.219 32.1502L359.524 32.2088L340.219 32.2674L269.198 32.3612H220.155H216.838C215.732 32.3334 214.624 32.3647 213.521 32.455C211.296 32.7235 209.188 33.6026 207.432 34.9951C205.676 36.3875 204.339 38.239 203.569 40.3444C202.702 42.478 202.843 44.8108 202.843 47.1553C202.843 56.5336 202.843 66.1931 202.843 76.134C202.843 95.9573 202.843 116.777 202.843 138.347V154.677C202.843 157.42 202.843 160.155 202.843 162.883V167.044C202.793 168.406 202.959 169.767 203.335 171.077C204.116 173.717 205.768 176.015 208.024 177.595C210.322 179.153 213.07 179.911 215.842 179.752H234.713V205.483L234.198 205.272C242.942 196.527 251.569 187.934 259.669 179.845L259.751 179.763H366.674C368.629 179.784 370.56 179.329 372.3 178.439C373.994 177.481 375.436 176.135 376.508 174.512C377.552 172.906 378.21 171.08 378.431 169.178C378.501 168.24 378.501 167.279 378.501 166.306V163.445C378.501 155.818 378.501 148.444 378.501 141.324C378.501 127.093 378.501 113.905 378.501 101.912C378.501 77.9511 378.571 58.7726 378.595 45.5728C378.668 44.0295 378.486 42.4846 378.055 41.0009C377.649 39.7072 377.035 38.4879 376.239 37.3903C374.99 35.6673 373.319 34.2948 371.386 33.4045C369.825 32.7157 368.145 32.3374 366.439 32.2909Z" fill="#263238"/>
<path d="M230.481 102.393C231.834 102.393 232.931 101.296 232.931 99.9432C232.931 98.5901 231.834 97.4932 230.481 97.4932C229.128 97.4932 228.031 98.5901 228.031 99.9432C228.031 101.296 229.128 102.393 230.481 102.393Z" fill="white"/>
<path d="M306.708 168.967C308.061 168.967 309.157 167.87 309.157 166.517C309.157 165.164 308.061 164.067 306.708 164.067C305.355 164.067 304.258 165.164 304.258 166.517C304.258 167.87 305.355 168.967 306.708 168.967Z" fill="white"/>
<path d="M283.497 47.472C284.85 47.472 285.946 46.3751 285.946 45.022C285.946 43.6688 284.85 42.5719 283.497 42.5719C282.144 42.5719 281.047 43.6688 281.047 45.022C281.047 46.3751 282.144 47.472 283.497 47.472Z" fill="white"/>
<path d="M301.02 94.1524C302.373 94.1524 303.47 93.0555 303.47 91.7024C303.47 90.3492 302.373 89.2523 301.02 89.2523C299.667 89.2523 298.57 90.3492 298.57 91.7024C298.57 93.0555 299.667 94.1524 301.02 94.1524Z" fill="white"/>
<path d="M673.586 171.402H437.515C429.31 171.402 422.699 163.747 422.699 154.299V-39.4789C422.699 -48.9391 429.334 -56.5941 437.515 -56.5941H673.586C681.791 -56.5941 688.39 -48.9391 688.39 -39.4789V154.299C688.39 163.747 681.767 171.402 673.586 171.402Z" fill="white"/>
<path d="M673.94 171.343H674.561C675.176 171.317 675.788 171.238 676.39 171.109C678.768 170.636 680.975 169.531 682.778 167.909C685.751 165.258 687.721 161.665 688.357 157.733C688.668 155.226 688.766 152.696 688.65 150.172C688.65 147.46 688.65 144.576 688.65 141.521C688.65 117.055 688.65 81.664 688.557 37.9381C688.557 16.0751 688.557 -7.87453 688.557 -33.5709C688.557 -35.1886 688.557 -36.7946 688.557 -38.4124C688.606 -40.0267 688.484 -41.6418 688.193 -43.2304C687.583 -46.4322 686.098 -49.4024 683.903 -51.8115C681.703 -54.262 678.695 -55.839 675.429 -56.2544C673.811 -56.3951 672.111 -56.2544 670.435 -56.3365H623.549H437.494C436.476 -56.3668 435.458 -56.3198 434.447 -56.1958C433.95 -56.1309 433.46 -56.0251 432.982 -55.8793L432.267 -55.6566L431.575 -55.3635C429.737 -54.5397 428.128 -53.2803 426.886 -51.6943C425.58 -50.1285 424.596 -48.3198 423.991 -46.3721C423.448 -44.4082 423.218 -42.3706 423.311 -40.3349V-15.7171C423.311 0.530689 423.311 16.5284 423.311 32.276C423.311 63.7399 423.311 94.0902 423.311 123.01V144.416C423.311 147.933 423.311 151.45 423.311 154.896C423.342 156.607 423.618 158.305 424.132 159.937C424.61 161.561 425.334 163.103 426.277 164.509C427.187 165.91 428.315 167.156 429.617 168.202C430.913 169.234 432.381 170.028 433.954 170.546C434.72 170.788 435.504 170.969 436.299 171.085C437.108 171.085 437.916 171.191 438.749 171.167H463.094H533.845L636.291 171.261L664.281 171.238L636.431 171.296L533.986 171.39H463.235H438.831C438.01 171.39 437.166 171.39 436.322 171.296C435.479 171.189 434.647 171.005 433.837 170.745C432.208 170.214 430.684 169.401 429.336 168.342C427.994 167.258 426.828 165.973 425.878 164.532C424.913 163.089 424.17 161.508 423.675 159.843C423.163 158.217 422.875 156.529 422.819 154.826C422.76 151.309 422.819 147.851 422.819 144.275V122.952C422.819 94.0316 422.819 63.6813 422.819 32.2174C422.819 16.4854 422.819 0.487713 422.819 -15.7757V-40.3935C422.726 -42.4847 422.964 -44.5775 423.522 -46.5949C424.095 -48.5924 425.051 -50.4596 426.335 -52.0929C427.648 -53.759 429.351 -55.0757 431.294 -55.9262L432.02 -56.2427L432.771 -56.4654C433.275 -56.6245 433.793 -56.7383 434.318 -56.8054C435.355 -56.9392 436.402 -56.9862 437.447 -56.9461H623.502H670.388C672.076 -56.9461 673.729 -56.9461 675.44 -56.864C678.823 -56.4125 681.933 -54.766 684.208 -52.2218C686.465 -49.739 687.99 -46.6796 688.615 -43.3828C688.909 -41.7628 689.035 -40.1168 688.99 -38.471V-33.6295C688.99 -7.92143 688.99 16.0282 688.99 37.8795C688.99 81.6054 688.92 116.997 688.897 141.462C688.897 144.522 688.897 147.405 688.897 150.113C688.998 152.65 688.892 155.19 688.58 157.71C687.919 161.673 685.911 165.288 682.895 167.944C681.072 169.562 678.844 170.656 676.448 171.109C675.843 171.237 675.227 171.303 674.608 171.308L673.94 171.343Z" fill="#263238"/>
<path d="M396.521 107.817C391.704 107.29 386.312 106.915 386.312 106.915L381.53 106.317C381.597 106.634 381.695 106.944 381.823 107.243C382.096 107.791 382.226 108.401 382.198 109.013C382.045 110.185 380.803 110.842 379.666 111.053C378.466 111.262 377.232 111.156 376.086 110.745C374.939 110.334 373.919 109.632 373.125 108.708C372.395 107.803 371.904 106.727 371.699 105.582C371.494 104.436 371.582 103.258 371.953 102.155C371.685 101.544 371.538 100.888 371.52 100.221C371.402 95.7075 376.759 91.9094 376.759 91.9094L375.118 91.4639C375.118 91.4639 369.902 92.179 367.159 100.502C366.769 101.754 365.935 102.821 364.815 103.503C364.475 103.733 364.088 103.883 363.682 103.942C363.276 104.001 362.862 103.967 362.471 103.843C360.466 103.128 360.454 101.499 362.095 96.3054C363.736 91.1122 367.054 86.5872 370.523 85.3798C372.123 84.7732 373.764 84.2835 375.434 83.9144C375.434 83.9144 360.841 79.0729 359.939 78.7212C357.301 77.7365 355.543 75.7202 356.047 73.9149C356.364 72.7426 357.641 71.5117 360.736 72.5785C363.42 73.4929 392.149 79.4246 392.149 79.4246L404.703 82.789L414.608 87.2554L407.657 104.605L406.485 105.367C403.554 107.328 400.027 108.195 396.521 107.817Z" fill="#AE7461"/>
<path d="M402.884 84.8172C402.767 86.4818 401.102 87.6541 399.473 88.0175C397.844 88.3809 396.121 88.1699 394.468 88.4161C389.51 89.1312 385.689 93.6562 380.695 94.1485C380.004 94.2189 379.124 94.0782 378.914 93.4217C378.703 92.7652 379.253 92.2494 379.734 91.7922L392.088 80.7377" fill="#AE7461"/>
<path d="M392.086 80.7377C391.553 81.0286 391.061 81.3871 390.621 81.8044C389.73 82.5313 388.452 83.6097 386.881 84.9461L381.408 89.7056C380.903 90.1628 380.376 90.62 379.837 91.0889C379.298 91.5578 378.559 91.9915 378.419 93.1169C378.411 93.3953 378.489 93.6695 378.642 93.9022C378.795 94.1349 379.015 94.315 379.274 94.4181C379.697 94.5908 380.155 94.6591 380.61 94.6174C381.427 94.5417 382.233 94.3765 383.013 94.1251C386.131 93.07 388.534 91.1709 390.949 90.0221C392.057 89.46 393.242 89.0649 394.465 88.8498C395.637 88.6623 396.751 88.6857 397.794 88.6036C398.649 88.6197 399.497 88.4487 400.278 88.1024C401.06 87.7561 401.756 87.243 402.319 86.5991C402.53 86.3669 402.688 86.0913 402.781 85.7915C402.874 85.4917 402.9 85.1751 402.858 84.8641C402.675 85.4122 402.397 85.924 402.037 86.3763C401.47 86.9165 400.797 87.3337 400.061 87.602C399.325 87.8703 398.541 87.9838 397.759 87.9355C396.62 87.9272 395.482 87.9781 394.348 88.0879C393.029 88.28 391.748 88.6754 390.55 89.2601C388.018 90.4324 385.592 92.2963 382.697 93.2576C381.996 93.4857 381.273 93.639 380.54 93.7148C379.849 93.7734 379.251 93.5272 379.368 93.1638C379.485 92.8004 379.931 92.2494 380.47 91.7805L382.017 90.3738L387.35 85.4619C388.862 84.0552 390.07 82.9064 390.867 82.0975C391.664 81.2886 392.133 80.7846 392.086 80.7377Z" fill="#6F4439"/>
<path d="M376.891 91.7218C375.857 91.4877 374.783 91.4877 373.749 91.7218C372.668 92.0435 371.718 92.7054 371.042 93.6092C370.206 94.7387 369.553 95.9927 369.108 97.3253C368.645 98.7068 368.044 100.038 367.314 101.299C366.685 102.351 365.792 103.22 364.724 103.82C364.351 104.021 363.937 104.132 363.514 104.147C363.091 104.161 362.671 104.077 362.286 103.902C361.77 103.632 361.571 103.374 361.583 103.351C361.594 103.327 361.876 103.503 362.38 103.679C362.733 103.8 363.109 103.841 363.48 103.799C363.851 103.756 364.208 103.631 364.525 103.433C365.497 102.834 366.304 101.999 366.869 101.006C367.554 99.7638 368.123 98.461 368.569 97.1143C369.041 95.7221 369.742 94.4186 370.643 93.2575C371.412 92.2883 372.479 91.6001 373.679 91.2998C374.48 91.1035 375.316 91.1035 376.117 91.2998C376.405 91.3778 376.67 91.5224 376.891 91.7218Z" fill="#6F4439"/>
<path d="M358.922 78.3105C359.914 78.5504 360.886 78.8679 361.829 79.2601L368.756 81.7102L375.73 84.0547C376.717 84.317 377.678 84.6661 378.602 85.098C377.582 84.9981 376.575 84.7858 375.602 84.465C373.773 83.9726 371.276 83.2224 368.569 82.2846C365.861 81.3467 363.411 80.3972 361.676 79.6587C360.708 79.3205 359.783 78.8679 358.922 78.3105Z" fill="#6F4439"/>
<path d="M379.025 96.1064C378.845 96.3703 378.636 96.614 378.404 96.8333C378.107 97.1135 377.874 97.4542 377.72 97.8324C377.566 98.2107 377.496 98.6175 377.513 99.0254C377.552 99.2877 377.661 99.5346 377.828 99.7407C377.995 99.9468 378.214 100.105 378.462 100.198C379.078 100.45 379.724 100.62 380.385 100.702C381.224 100.812 381.992 101.23 382.541 101.874C382.809 102.234 382.986 102.653 383.06 103.095C383.133 103.537 383.1 103.991 382.963 104.418C382.815 104.844 382.582 105.235 382.278 105.567C381.973 105.9 381.604 106.167 381.193 106.352C380.448 106.716 379.611 106.847 378.791 106.727C377.499 106.477 376.254 106.03 375.098 105.403C374.3 105.014 373.574 104.49 372.953 103.855C372.717 103.625 372.544 103.339 372.449 103.023C372.508 103.023 372.684 103.293 373.129 103.691C373.786 104.229 374.511 104.679 375.286 105.027C376.427 105.569 377.632 105.963 378.873 106.2C379.59 106.308 380.322 106.177 380.958 105.827C381.593 105.478 382.096 104.929 382.389 104.265C382.504 103.923 382.539 103.559 382.49 103.201C382.441 102.843 382.31 102.501 382.108 102.202C381.638 101.691 381.003 101.363 380.314 101.276C379.61 101.164 378.925 100.959 378.275 100.667C377.96 100.536 377.685 100.324 377.479 100.052C377.273 99.7798 377.143 99.4579 377.103 99.1192C377.094 98.6528 377.196 98.1911 377.4 97.7715C377.604 97.3519 377.903 96.9863 378.275 96.7043C378.487 96.4621 378.741 96.2597 379.025 96.1064Z" fill="#6F4439"/>
<path d="M380.784 105.953C380.784 105.953 381.124 105.953 381.581 106.317C381.892 106.583 382.137 106.92 382.293 107.299C382.45 107.678 382.515 108.088 382.483 108.497C382.416 109.112 382.187 109.697 381.821 110.196C381.454 110.694 380.963 111.086 380.397 111.334C379.021 111.92 377.474 111.957 376.072 111.439C374.68 110.977 373.472 110.082 372.626 108.884C371.946 107.911 371.541 106.773 371.453 105.59C371.384 104.8 371.468 104.004 371.7 103.245C371.864 102.718 372.028 102.448 372.063 102.46C371.857 103.47 371.798 104.504 371.887 105.531C372.019 106.618 372.422 107.654 373.059 108.544C373.859 109.632 374.971 110.45 376.247 110.889C377.498 111.36 378.877 111.36 380.127 110.889C380.616 110.69 381.047 110.371 381.379 109.961C381.711 109.551 381.934 109.064 382.026 108.544C382.071 108.188 382.037 107.826 381.928 107.484C381.819 107.141 381.636 106.827 381.393 106.563C381.065 106.106 380.76 106 380.784 105.953Z" fill="#6F4439"/>
<path d="M394.001 99.295C394.03 98.7982 394.206 98.3212 394.505 97.9235C395.186 96.8498 396.198 96.0269 397.388 95.5789V96.1182C396.802 95.8368 396.216 95.5086 395.56 95.1334C393.446 93.9536 391.708 92.2026 390.543 90.0809C392.148 91.7664 393.933 93.2719 395.865 94.5708C396.462 94.9342 397.037 95.2624 397.623 95.5437L398.244 95.8485L397.588 96.0713C396.484 96.4753 395.52 97.1873 394.81 98.1228C394.282 98.8261 394.083 99.3302 394.001 99.295Z" fill="#6F4439"/>
<path d="M369.138 91.1359C369.256 91.0187 370.111 91.9331 370.205 93.3867C370.299 94.8403 369.619 95.8837 369.49 95.7313C369.361 95.5789 369.701 94.6528 369.596 93.3867C369.49 92.1206 368.998 91.2297 369.138 91.1359Z" fill="#6F4439"/>
<path d="M523.286 63.3882C523.286 63.3882 492.189 116.481 481.839 121.65C471.489 126.82 434.05 119.306 425.353 117.29C415.472 114.968 402.883 111.053 402.883 111.053L406.563 81.5702L414.71 81.7461C414.71 81.7461 460.869 86.4352 463.541 84.3134C466.214 82.1915 483.972 48.1486 483.972 48.1486C483.972 48.1486 495.131 25.6174 499.128 20.4594C504.989 12.8865 509.9 12.8865 509.9 12.8865L523.286 63.3882Z" fill="#ABC4FF"/>
<path d="M485.941 171.003C486.762 128.872 490.548 43.2251 490.548 43.2251L509.912 12.9803C514.299 11.7708 518.775 10.9085 523.298 10.4013C530.706 9.58073 531.96 8.87736 531.96 8.87736L537.352 0.378347L581.788 -2.25928L588.575 10.331C588.575 10.331 616.39 24.8321 620.094 26.8718C623.798 28.9116 599.651 128.86 599.651 128.86L604.34 171.062L485.941 171.003Z" fill="#ABC4FF"/>
<path d="M524.598 171.003C524.762 163.617 525.149 154.814 525.664 145.06C526.18 135.307 527.024 124.581 528.126 113.35C529.228 102.12 530.658 91.5224 532.158 81.7925C533.659 72.0626 535.346 63.4815 537.069 56.272C537.48 54.4784 537.866 52.7551 538.242 51.1257C538.617 49.4962 539.074 47.9957 539.414 46.5773C540.152 43.7286 540.797 41.2786 541.442 39.3091L542.801 34.7255C542.942 34.2449 543.047 33.8463 543.141 33.5532C543.186 33.4207 543.214 33.2827 543.223 33.1429C543.15 33.2635 543.095 33.3937 543.059 33.5298C542.942 33.8346 542.813 34.2214 542.637 34.7021C542.274 35.804 541.758 37.3162 541.113 39.2388C540.469 41.1613 539.742 43.6466 538.957 46.4835C538.558 47.9019 538.124 49.4259 537.679 51.0319C537.234 52.6379 536.87 54.3729 536.436 56.1665C534.643 63.376 532.99 72.0391 531.338 81.6987C529.685 91.3582 528.396 102.049 527.235 113.35C526.075 124.651 525.383 135.33 524.891 145.095C524.399 154.861 524.094 163.676 524 171.073" fill="#263238"/>
<path d="M490.547 43.2479C490.383 44.2009 490.293 45.165 490.277 46.1317C490.148 47.9839 490.019 50.6684 489.89 53.986C489.621 60.6328 489.398 69.8 489.129 79.9285C488.859 90.057 488.519 99.2242 488.203 105.859C488.038 109.071 487.898 111.721 487.804 113.714C487.71 114.672 487.69 115.636 487.745 116.597C487.953 115.656 488.082 114.699 488.132 113.737C488.331 111.885 488.566 109.212 488.8 105.894C489.281 99.2711 489.726 90.0921 489.972 79.9519C490.219 69.8117 490.371 60.6445 490.488 54.0094C490.488 50.7974 490.57 48.148 490.594 46.1434C490.648 45.1784 490.632 44.2107 490.547 43.2479Z" fill="#263238"/>
<g opacity="0.3">
<path d="M492.089 115.483C492.351 114.178 492.934 112.959 493.786 111.936C494.637 110.913 495.73 110.117 496.965 109.622C499.465 108.65 502.125 108.157 504.807 108.168C539.849 106.615 574.173 118.426 600.841 141.215L602.2 150.593C593.749 154.169 583.95 151.765 575.569 147.979C567.188 144.193 559.229 139.222 550.204 137.428C542.386 135.916 533.97 136.936 526.761 133.595C522.213 131.485 518.474 127.734 513.692 126.233C509.437 124.862 504.771 125.366 500.411 124.358C496.051 123.349 491.538 119.903 492.089 115.483Z" fill="black"/>
</g>
<path d="M620.081 26.8717C624.556 29.2976 628.45 32.666 631.496 36.7443C634.542 40.8226 636.666 45.5136 637.722 50.4931C640.066 60.8912 646.853 89.483 646.853 89.483C646.853 89.483 654.226 123.596 653.171 130.208C652.116 136.82 649.901 151.59 635.507 153.325C621.113 155.06 571.038 136.82 571.038 136.82L557.359 131.251L562.622 106.188L586.136 112.049L609.18 113.984L606.074 93.1523L600.975 79.8C600.975 79.8 601.256 65.1934 606.836 53.0135C612.415 40.8335 620.081 26.8717 620.081 26.8717Z" fill="#ABC4FF"/>
<path d="M534.247 94.3003L516.079 57.526C515.469 56.2981 514.528 55.2653 513.362 54.5444C512.195 53.8235 510.851 53.4432 509.48 53.4464H463.837C463.451 53.4451 463.071 53.544 462.735 53.7336C462.399 53.9232 462.118 54.1968 461.919 54.5278C461.72 54.8587 461.611 55.2356 461.602 55.6215C461.593 56.0073 461.685 56.3889 461.867 56.7288L492.765 113.948C493.194 114.736 493.827 115.394 494.599 115.852C495.371 116.31 496.252 116.551 497.149 116.55H544.504L534.247 94.3003Z" fill="#455A64"/>
<path d="M462.16 57.0346C462.46 57.1042 462.767 57.1318 463.074 57.1167H465.688H475.312L506.96 56.8471C508.427 56.8345 509.876 57.1806 511.179 57.8552C512.369 58.6127 513.336 59.6727 513.981 60.9266C515.305 63.4353 516.419 66.0612 517.579 68.4409L523.628 81.3008C525.351 84.8176 526.757 87.76 527.789 89.8936L528.961 92.2381C529.08 92.5204 529.238 92.7847 529.43 93.0236C529.36 92.728 529.258 92.441 529.125 92.1678C528.855 91.5348 528.515 90.7493 528.093 89.8232C527.132 87.6545 525.749 84.7004 524.19 81.1015L518.329 68.2064C517.157 65.7915 516.114 63.2477 514.743 60.6101C514.031 59.222 512.958 58.0516 511.637 57.2222C510.219 56.4637 508.638 56.0614 507.03 56.0499C494.594 56.132 483.411 56.4016 475.288 56.5657L465.677 56.8354L463.063 56.9526C462.76 56.9486 462.457 56.9761 462.16 57.0346Z" fill="#263238"/>
<path d="M490.285 65.0871C490.069 65.1664 489.874 65.2948 489.716 65.4622C489.557 65.6296 489.44 65.8315 489.373 66.0519C489.306 66.2724 489.291 66.5054 489.329 66.7326C489.368 66.9598 489.458 67.1751 489.594 67.3614C489.849 67.7476 490.221 68.043 490.654 68.2052C491.088 68.3674 491.562 68.388 492.008 68.264C492.305 68.1994 492.578 68.0566 492.801 67.8505C493.024 67.6443 493.187 67.3823 493.274 67.0917C493.298 66.64 493.175 66.1929 492.923 65.8168C492.672 65.4408 492.306 65.1561 491.879 65.0051C491.349 64.9032 490.802 64.9313 490.285 65.0871Z" fill="white"/>
<path d="M562.161 108.45L559.008 105.238C559.008 105.238 554.39 98.5677 552.503 96.4928C550.616 94.4179 539.258 87.1146 539.258 87.1146C539.258 87.1146 533.795 79.7996 532.998 79.7996C532.201 79.7996 529.482 80.2685 530.209 83.6798C530.884 87.0564 531.889 90.3585 533.209 93.5387L508.981 94.0662C508.226 94.0711 507.48 94.2416 506.798 94.5657C506.115 94.8898 505.512 95.3595 505.031 95.9418C504.398 96.739 504.128 97.6299 505.265 98.1926C507.786 99.4352 518.077 101.944 518.077 101.944L513.482 100.772C513.482 100.772 512.498 105.132 515.404 107.196C516.538 107.878 517.579 108.706 518.499 109.657C518.499 109.657 518.64 113.784 519.906 115.449C521.171 117.113 534.815 124.076 534.815 124.076C534.815 124.076 543.548 126.644 547.955 126.421C552.362 126.198 556.91 128.695 557.414 128.824C557.918 128.953 562.161 108.45 562.161 108.45Z" fill="#AE7461"/>
<path d="M530.832 93.6091C530.832 93.8553 533.891 93.9725 537.642 94.3711C541.393 94.7696 544.488 94.969 544.511 94.6993C544.534 94.4297 541.51 93.9373 537.724 93.5271C533.938 93.1168 530.82 93.3864 530.832 93.6091Z" fill="#6F4439"/>
<path d="M534.063 104.277C534.145 104.019 529.726 102.823 524.17 102.19C521.392 101.85 518.884 101.592 517.079 101.393C516.101 101.212 515.107 101.137 514.113 101.17C515.012 101.617 515.986 101.895 516.985 101.991C518.79 102.343 521.299 102.694 524.018 103.034C529.597 103.667 534.005 104.476 534.063 104.277Z" fill="#6F4439"/>
<path d="M534.072 112.143C534.072 111.897 530.555 111.792 526.277 111.053C521.998 110.315 518.634 109.271 518.552 109.506C518.47 109.74 521.764 111.159 526.136 111.85C530.508 112.542 534.083 112.366 534.072 112.143Z" fill="#6F4439"/>
<path d="M532.604 120.959C532.838 120.959 533.19 120.056 533.389 118.849C533.588 117.641 533.565 116.645 533.33 116.598C533.096 116.551 532.744 117.512 532.545 118.708C532.346 119.904 532.369 120.924 532.604 120.959Z" fill="#6F4439"/>
<path d="M534.775 110.407C535.01 110.407 535.139 109.61 535.561 108.778C535.983 107.946 536.499 107.359 536.358 107.16C536.217 106.961 535.303 107.348 534.787 108.414C534.271 109.481 534.541 110.442 534.775 110.407Z" fill="#6F4439"/>
<path d="M537.544 99.8452C537.779 99.8452 538.025 99.3646 538.318 98.7902C538.611 98.2158 538.857 97.7234 538.693 97.5476C538.529 97.3717 537.92 97.6883 537.521 98.4151C537.122 99.1419 537.31 99.8218 537.544 99.8452Z" fill="#6F4439"/>
<path d="M543.262 33.1202C543.743 32.8919 544.206 32.6253 544.645 32.323L548.466 30.0488C550.107 29.0758 552.1 27.9153 554.327 26.532C556.854 25.051 559.26 23.3734 561.524 21.5146L560.891 21.4091C562.738 24.9942 563.626 28.9964 563.47 33.0264V33.9877L564.196 33.3664C571.323 27.3409 577.711 21.796 582.154 17.5875C584.381 15.4891 586.139 13.7542 587.323 12.5116C587.964 11.8982 588.552 11.2315 589.081 10.5187C588.372 11.052 587.706 11.6399 587.088 12.2771L581.743 17.1538C577.207 21.2333 570.772 26.6961 563.645 32.7216L564.349 33.0616C564.513 28.887 563.575 24.7429 561.629 21.0457L561.383 20.6003L560.996 20.9402C558.782 22.7878 556.431 24.4651 553.963 25.9576L548.243 29.6385C546.638 30.6584 545.372 31.5025 544.539 32.112C544.07 32.3886 543.64 32.7278 543.262 33.1202Z" fill="#263238"/>
<path d="M531.96 8.82996C531.58 9.37561 531.269 9.96625 531.034 10.5884C530.507 11.7606 529.792 13.4604 528.971 15.594C528.151 17.7275 527.213 20.2831 526.345 23.1786C526.123 23.9054 525.912 24.6674 525.748 25.4528C525.642 25.8979 525.607 26.3567 525.642 26.8127C525.676 26.966 525.769 27.0998 525.9 27.1854C526.032 27.2709 526.192 27.3012 526.345 27.2699C526.489 27.2491 526.62 27.1735 526.709 27.0589L526.803 26.9416L527.189 26.461L530.319 22.4284L534.363 17.1883L533.671 17.1297C536.203 21.8774 538.501 25.9335 540.247 28.7587C541.115 30.1771 541.841 31.2791 542.369 32.0293C542.613 32.4324 542.913 32.7994 543.26 33.1195C543.096 32.6782 542.876 32.2604 542.603 31.8769C542.087 30.9508 541.431 29.8254 540.693 28.5008C539.087 25.617 536.883 21.4671 534.398 16.778L534.105 16.2036L533.707 16.7194C532.429 18.3606 531.058 20.1073 529.651 21.9243L526.545 25.8749L526.181 26.3672L526.088 26.4845L526.24 26.6368L526.463 26.5782C526.457 26.2353 526.492 25.8929 526.568 25.5583C526.721 24.8081 526.908 24.0696 527.107 23.3545C527.928 20.4707 528.819 17.9034 529.545 15.7464L531.351 10.6704C531.612 10.078 531.817 9.46163 531.96 8.82996Z" fill="#263238"/>
<path d="M604.183 80.8196C604.152 81.0137 604.152 81.2116 604.183 81.4057C604.183 81.8512 604.3 82.4139 604.394 83.1173C604.605 84.6764 604.91 86.8685 605.296 89.6351L608.754 113.35C608.754 113.55 608.754 113.784 608.754 114.03L609.129 113.667L584.514 111.322L562.665 105.801L562.232 105.695L562.138 106.129C561.716 108.11 561.271 110.232 560.825 112.366C559.465 118.86 558.141 125.179 556.887 131.192L556.816 131.532L557.133 131.661C572.184 137.886 587.613 143.156 603.327 147.44C609.188 149.023 613.877 150.148 617.194 150.875L620.933 151.684L621.906 151.871C622.018 151.889 622.133 151.889 622.246 151.871L621.929 151.754L620.968 151.496L617.252 150.558C614.017 149.726 609.317 148.53 603.468 146.877C587.861 142.442 572.527 137.099 557.543 130.876L557.801 131.333C559.067 125.331 560.391 119.012 561.763 112.518C562.208 110.384 562.654 108.263 563.064 106.281L562.548 106.598L584.409 112.084H584.479L609.188 114.312H609.587V113.925C609.587 113.69 609.587 113.444 609.587 113.245C608.028 103.374 606.75 95.2738 605.847 89.5882C605.379 86.8217 605.027 84.6412 604.769 83.0938L604.453 81.394C604.38 81.1948 604.29 81.0025 604.183 80.8196Z" fill="#263238"/>
<g opacity="0.3">
<path d="M559.308 30.365L544.504 32.3931C550.422 29.217 556.026 25.4882 561.242 21.2564C563.094 25.5704 564.126 27.1178 563.821 33.3778C570.994 27.4109 577.781 20.5882 584.92 14.6213C577.52 25.4132 568.47 34.9746 558.101 42.9553C559.075 38.8332 559.481 34.5972 559.308 30.365Z" fill="black"/>
</g>
<path d="M520.386 -24.1102C520.573 -32.5623 522.402 -49.9003 524.23 -65.6322C525.224 -73.8024 529.25 -81.3011 535.511 -86.6423C541.772 -91.9835 549.811 -94.7774 558.035 -94.4703H559.735C578.055 -92.7119 586.823 -76.3469 584.572 -58.2352L579.415 -1.14526L544.028 30.7993L536.303 8.22124L537.476 -3.27879C537.476 -3.27879 519.987 -6.60807 520.386 -24.1102Z" fill="#AE7461"/>
<path d="M537.383 -3.315C545.565 -3.0092 553.664 -5.04245 560.732 -9.17639C560.732 -9.17639 554.871 3.22631 537.289 1.04587L537.383 -3.315Z" fill="#6F4439"/>
<path d="M271.018 93.5057V135.864H301.927V140H268V93.5057H271.018ZM304.945 131.727V135.864H301.927V131.727H304.945ZM277.055 93.5057V127.591H301.927V131.727H274.037V93.5057H277.055ZM307.963 131.727H304.945V127.591H307.963V131.727ZM310.982 127.591H307.963V123.455H310.982V127.591ZM304.945 123.455V127.591H301.927V123.455H304.945ZM301.927 93.5057V123.455H279.993V93.5057H301.927ZM307.963 123.455H304.945V89.4091H279.993V85.2727H307.963V123.455ZM314 123.455H310.982V81.1364H279.993V77H314V123.455ZM279.993 93.5057H277.055V89.4091H279.993V93.5057ZM274.037 93.5057H271.018V89.4091H274.037V93.5057ZM277.055 89.4091H274.037V85.2727H277.055V89.4091ZM279.993 85.2727H277.055V81.1364H279.993V85.2727Z" fill="url(#paint0_linear_1323_5913)"/>
</g>
<rect x="0.5" y="0.5" width="580" height="255" rx="11.5" stroke="white"/>
<defs>
<linearGradient id="paint0_linear_1323_5913" x1="315.65" y1="76.4432" x2="268.806" y2="141.01" gradientUnits="userSpaceOnUse">
<stop stop-color="#9BB8FF"/>
<stop offset="0.45098" stop-color="#3771FE"/>
<stop offset="1" stop-color="#214498"/>
</linearGradient>
<clipPath id="clip0_1323_5913">
<rect width="581" height="256" rx="12" fill="white"/>
</clipPath>
</defs>
</svg>
