<svg width="24" height="24" viewBox="0 0 24 24" fill="none" xmlns="http://www.w3.org/2000/svg">
<path d="M22 8V17.8712C22 18.6693 21.6931 19.4372 21.1419 20.0178C20.5906 20.5985 19.8369 20.948 19.0348 20.9948L18.85 21H4.15C3.34653 21 2.57341 20.6951 1.98883 20.1476C1.40424 19.6001 1.05239 18.8515 1.00525 18.0548L1 17.8712V8L10.9172 14.5673L11.039 14.6361C11.1826 14.7058 11.3402 14.742 11.5 14.742C11.6598 14.742 11.8174 14.7058 11.9609 14.6361L12.0827 14.5673L22 8Z" fill="#3771FE"/>
<path d="M19.1923 4C20.3791 4 21.4198 4.58484 22 5.46415L11.5 12L1 5.46415C1.27553 5.04632 1.65408 4.69606 2.10407 4.44261C2.55407 4.18916 3.06245 4.03987 3.58681 4.00718L3.80769 4H19.1923Z" fill="#3771FE"/>
</svg>
