<svg width="1143" height="1584" viewBox="0 0 1143 1584" fill="none" xmlns="http://www.w3.org/2000/svg">
<path d="M75 415V1480H843V1584H0V415H75ZM918 1376V1480H843V1376H918ZM225 415V1272H843V1376H150V415H225ZM993 1376H918V1272H993V1376ZM1068 1272H993V1168H1068V1272ZM918 1168V1272H843V1168H918ZM843 415V1168H298V415H843ZM993 1168H918V312H298V208H993V1168ZM1143 1168H1068V104H298V0H1143V1168ZM298 415H225V312H298V415ZM150 415H75V312H150V415ZM225 312H150V208H225V312ZM298 208H225V104H298V208Z" fill="url(#paint0_linear_2221_19099)"/>
<defs>
<linearGradient id="paint0_linear_2221_19099" x1="1184" y1="-14" x2="1.95015" y2="1596.12" gradientUnits="userSpaceOnUse">
<stop stop-color="#9BB8FF"/>
<stop offset="0.45098" stop-color="#3771FE"/>
<stop offset="1" stop-color="#214498"/>
</linearGradient>
</defs>
</svg>
