<svg width="114" height="24" viewBox="0 0 114 24" fill="none" xmlns="http://www.w3.org/2000/svg">
<path d="M56.2082 16.8877C57.3143 16.8877 58.2172 17.7682 58.2172 18.8741C58.2172 19.9802 57.3143 20.9057 56.2082 20.9057C55.1021 20.9057 54.1992 19.9802 54.1992 18.8741C54.1992 17.7682 55.1021 16.8877 56.2082 16.8877Z" fill="#214498"/>
<path d="M48.2703 13.2761L53.0782 20.4542H49.0604L44.9297 13.5922H44.8844V20.4542H41.5664V3.43457H46.0582C49.4215 3.43457 51.7465 4.92434 51.7465 8.5585C51.7465 10.7255 50.5502 12.8924 48.2703 13.2761ZM44.8844 6.14326V11.2672H45.3134C47.1416 11.2672 48.4283 10.7255 48.4283 8.64879C48.4283 6.54955 47.0966 6.14326 45.336 6.14326H44.8844Z" fill="#214498"/>
<path d="M26.9746 20.4542V3.43457H31.7148C36.6355 3.43457 39.9312 7.11386 39.9312 11.967C39.9312 16.7522 36.5452 20.4542 31.6922 20.4542H26.9746ZM30.2926 6.32383V17.5649H30.8345C34.9202 17.5649 36.5002 15.3077 36.5002 11.9444C36.5002 8.24248 34.6041 6.32383 30.8345 6.32383H30.2926Z" fill="#214498"/>
<path d="M113.907 11.9133C113.907 16.9244 110.68 20.8972 105.488 20.8972C100.296 20.8972 97.0684 16.9244 97.0684 11.9133C97.0684 6.85706 100.409 2.97461 105.488 2.97461C110.567 2.97461 113.907 6.85706 113.907 11.9133ZM110.476 11.7779C110.476 9.02402 108.625 6.24761 105.488 6.24761C102.35 6.24761 100.499 9.02402 100.499 11.7779C100.499 14.3963 101.809 17.6242 105.488 17.6242C109.167 17.6242 110.476 14.3963 110.476 11.7779Z" fill="#214498"/>
<path d="M95.8757 6.3153H90.7519V10.0623H95.5597V12.9516H90.7519V20.4457H87.4336V3.42603H95.8757V6.3153Z" fill="#214498"/>
<path d="M70.3047 20.4456V2.97461H72.6974L81.6588 14.8703H81.7038V3.42605H85.0221V20.7843H82.6294L73.668 8.88859H73.623V20.4456H70.3047Z" fill="#214498"/>
<path d="M67.8923 3.42603V20.4457H64.5742V3.42603H67.8923Z" fill="#214498"/>
<path d="M1.14007 6.28788V22.4242H12.8144V24H0V6.28788H1.14007ZM13.9544 20.8485V22.4242H12.8144V20.8485H13.9544ZM3.42021 6.28788V19.2727H12.8144V20.8485H2.28014V6.28788H3.42021ZM15.0945 20.8485H13.9544V19.2727H15.0945V20.8485ZM16.2346 19.2727H15.0945V17.697H16.2346V19.2727ZM13.9544 17.697V19.2727H12.8144V17.697H13.9544ZM12.8144 6.28788V17.697H4.52987V6.28788H12.8144ZM15.0945 17.697H13.9544V4.72727H4.52987V3.15152H15.0945V17.697ZM17.3747 17.697H16.2346V1.57576H4.52987V0H17.3747V17.697ZM4.52987 6.28788H3.42021V4.72727H4.52987V6.28788ZM2.28014 6.28788H1.14007V4.72727H2.28014V6.28788ZM3.42021 4.72727H2.28014V3.15152H3.42021V4.72727ZM4.52987 3.15152H3.42021V1.57576H4.52987V3.15152Z" fill="url(#paint0_linear_1224_748)"/>
<defs>
<linearGradient id="paint0_linear_1224_748" x1="17.9979" y1="-0.212121" x2="0.105587" y2="24.2392" gradientUnits="userSpaceOnUse">
<stop stop-color="#9BB8FF"/>
<stop offset="0.45098" stop-color="#3771FE"/>
<stop offset="1" stop-color="#214498"/>
</linearGradient>
</defs>
</svg>
