<svg width="526" height="134" viewBox="0 0 526 134" fill="none" xmlns="http://www.w3.org/2000/svg">
<g clip-path="url(#clip0_1461_9292)">
<rect width="526" height="134" rx="12" fill="#F9FBFF"/>
<path d="M168.371 26.3365H-26.9461C-33.7133 26.3365 -39.1992 31.7472 -39.1992 38.4215V175.271C-39.1992 181.945 -33.7133 187.356 -26.9461 187.356H168.371C175.138 187.356 180.624 181.945 180.624 175.271V38.4215C180.624 31.7472 175.138 26.3365 168.371 26.3365Z" fill="white"/>
<path d="M-28.806 26.3361H168.957C172.178 26.3361 175.267 27.5982 177.545 29.8448C179.823 32.0914 181.103 35.1384 181.103 38.3155V54.5588H-38.7617V36.1145C-38.7661 34.8258 -38.5112 33.5489 -38.012 32.358C-37.5127 31.167 -36.7789 30.0855 -35.853 29.1761C-34.9271 28.2667 -33.8275 27.5474 -32.6179 27.0599C-31.4083 26.5725 -30.1127 26.3264 -28.806 26.3361Z" fill="#E0E0E0"/>
<path d="M168.884 187.364L169.37 187.324C169.848 187.313 170.324 187.264 170.794 187.178C173.245 186.787 175.518 185.67 177.311 183.976C179.103 182.282 180.332 180.09 180.832 177.692C181.08 175.785 181.157 173.861 181.063 171.941C181.063 169.879 181.063 167.678 181.063 165.355C181.063 146.74 181.063 119.809 180.997 86.5344C180.997 78.2179 180.997 69.5142 180.997 60.4234C180.997 55.8861 180.997 51.2541 180.997 46.5273V39.3802C181.036 38.1868 180.934 36.993 180.692 35.823C180.146 33.4552 178.886 31.3061 177.077 29.6587C176.17 28.8262 175.133 28.1433 174.006 27.6364C172.874 27.1109 171.665 26.7655 170.424 26.613C169.158 26.5151 167.888 26.4826 166.619 26.5156H150.974H118.381H-26.746H-27.9812C-28.3764 26.5156 -28.8046 26.5156 -29.167 26.5806C-29.9498 26.6745 -30.7201 26.8515 -31.4644 27.1085C-32.9513 27.6172 -34.3025 28.4503 -35.4175 29.5458C-36.5325 30.6412 -37.3824 31.9707 -37.9039 33.4352C-38.1683 34.1626 -38.3478 34.9174 -38.4391 35.6849C-38.5122 36.4569 -38.5397 37.2325 -38.5215 38.0077V56.6874C-38.5215 69.0594 -38.5215 81.2418 -38.5215 93.2348C-38.5215 117.177 -38.5215 140.275 -38.5215 162.269V174.516C-38.5215 175.198 -38.5215 175.856 -38.4556 176.514L-38.3074 177.497C-38.2497 177.822 -38.1427 178.138 -38.0686 178.455C-37.3492 181.003 -35.787 183.242 -33.6301 184.814C-32.5691 185.586 -31.3906 186.186 -30.1386 186.593C-28.8857 186.964 -27.585 187.156 -26.2766 187.161H4.46325H59.6352L139.511 187.226L59.6352 187.291H4.46325L-26.2766 187.511C-27.6241 187.506 -28.9638 187.309 -30.2539 186.926C-32.2064 186.299 -33.9737 185.21 -35.4018 183.755C-36.8299 182.3 -37.8755 180.522 -38.4474 178.577C-38.5215 178.244 -38.6285 177.919 -38.6862 177.578L-38.8426 176.571C-38.8838 175.889 -38.925 175.206 -38.9168 174.532V162.285C-38.9168 140.283 -38.9168 117.185 -38.9168 93.251V38.0726C-38.9343 37.2812 -38.9068 36.4895 -38.8344 35.7011C-38.7397 34.9054 -38.5518 34.1232 -38.2745 33.3702C-37.7342 31.8456 -36.8513 30.4612 -35.692 29.3206C-34.5327 28.18 -33.1268 27.3127 -31.5797 26.7836C-30.8052 26.5203 -30.0048 26.3379 -29.1917 26.2394C-28.7882 26.1988 -28.3682 26.1988 -27.9729 26.1745H-26.7624H118.365H166.57C167.853 26.1408 169.137 26.176 170.416 26.2801C171.691 26.4346 172.934 26.7883 174.097 27.3277C175.259 27.8523 176.327 28.56 177.259 29.4231C178.194 30.2606 178.989 31.2393 179.614 32.3225C180.243 33.3918 180.702 34.5506 180.972 35.758C181.221 36.9518 181.323 38.1706 181.277 39.3883V46.5354C181.277 51.2514 181.277 55.8834 181.277 60.4315C181.277 69.5115 181.277 78.2151 181.277 86.5425C181.277 119.841 181.228 146.748 181.211 165.363C181.211 167.686 181.211 169.887 181.211 171.95C181.299 173.878 181.21 175.811 180.948 177.724C180.313 180.728 178.547 183.384 176.007 185.155C174.461 186.239 172.678 186.949 170.803 187.226C170.329 187.305 169.85 187.349 169.37 187.356L168.884 187.364Z" fill="#263238"/>
<path d="M36.1137 12.6189C33.3962 10.9134 32.7375 6.9338 34.2115 4.12371C35.6855 1.31363 38.8229 -0.424399 42.0014 -0.92794C44.3178 -1.27809 46.6853 -1.08157 48.9097 -0.354496C51.1342 0.372573 53.1521 1.60947 54.798 3.25471C56.552 5.03334 57.9766 7.36424 60.3646 8.18453C62.4562 8.89923 64.7784 8.24951 66.9523 8.53376C69.9003 8.91548 72.4283 10.9702 73.9435 13.5042C75.3451 16.0997 76.1863 18.9536 76.4139 21.8857C76.7351 24.5577 76.9492 27.4978 78.8266 29.447C80.7041 31.3961 83.5616 31.7535 85.8425 33.1017C87.9365 34.4621 89.4072 36.577 89.9397 38.9936C90.4722 41.4102 90.0242 43.9364 88.6917 46.0313C87.7859 47.3308 86.4931 48.5165 86.386 50.0921C86.2872 51.5215 87.2095 52.8047 87.6706 54.1529C88.807 57.6777 85.8755 61.8685 82.1287 62.0796C80.2348 62.1852 78.2091 61.4624 76.521 62.2989C74.8329 63.1355 74.207 65.1253 73.1283 66.6521C72.0224 68.1242 70.4373 69.1768 68.6383 69.6337C66.8394 70.0906 64.936 69.9239 63.2467 69.1617C61.8551 68.4876 60.5376 67.3831 58.9977 67.4805C57.4578 67.578 56.2391 68.8856 54.7157 69.1779C52.7311 69.5515 50.8454 68.1059 49.6596 66.4897C48.4738 64.8735 47.6586 62.9568 46.1434 61.6167C44.1671 59.8787 41.3838 59.4482 38.8805 58.5955C36.1037 57.6532 33.5645 56.1337 31.4347 54.1398C29.3049 52.1458 27.6342 49.7239 26.5357 47.038C25.4371 44.352 24.9364 41.4647 25.0673 38.5713C25.1982 35.6779 25.9577 32.846 27.2944 30.2672" fill="#263238"/>
<path d="M64.9362 47.7447C65.5487 47.0992 66.3079 46.6065 67.1513 46.3072H66.9454C67.1022 46.2677 67.2619 46.2405 67.423 46.226C67.7094 46.1438 68.0097 46.1201 68.3056 46.1564C68.6016 46.1927 68.8869 46.2882 69.1441 46.4371C70.1086 46.7753 70.9084 47.4598 71.3839 48.3539C71.7537 49.1472 71.8962 50.0253 71.796 50.8929C71.6959 51.7605 71.3568 52.5845 70.8157 53.2756C70.4224 53.9025 69.846 54.3975 69.1623 54.6955C68.4785 54.9935 67.7194 55.0806 66.9845 54.9453C66.2497 54.81 65.5735 54.4587 65.0448 53.9375C64.5161 53.4163 64.1596 52.7495 64.0221 52.0248C63.7975 51.2931 63.7635 50.5174 63.9232 49.7693C64.083 49.0212 64.4314 48.3249 64.9362 47.7447Z" fill="#455A64"/>
<path d="M28.8326 73.2146L26.107 23.9082C26.0516 22.7956 26.4222 21.703 27.1451 20.8471C27.868 19.9911 28.8906 19.4343 30.0102 19.287L53.7753 12.6516C61.4171 11.6364 66.7778 20.7733 67.4777 28.3751C68.3012 36.781 68.8776 47.0549 68.0459 53.3978C66.399 66.1001 55.8257 68.0168 55.8257 68.0168C55.8257 68.0168 55.7516 71.2167 55.8257 75.8135L50.9756 91.4314L28.8326 73.2146Z" fill="#FFBF9D"/>
<path d="M55.8159 68.0164C50.0293 68.2237 44.3008 66.8162 39.2891 63.9556C39.2891 63.9556 43.0029 73.3604 55.7583 71.8173L55.8159 68.0164Z" fill="#FF9A6C"/>
<path d="M48.9871 14.942C47.3402 14.4872 44.0463 13.4476 43.2229 12.0669C41.3371 9.05379 38.0103 7.00714 34.6177 7.19394C32.8588 7.32873 31.1916 8.02204 29.8659 9.16997C28.5402 10.3179 27.6274 11.8586 27.2642 13.5613C25.1527 13.6356 23.1007 14.27 21.324 15.3977C19.5473 16.5254 18.1118 18.1047 17.1685 19.9693C16.9208 20.4499 16.7063 20.9465 16.5262 21.4555C15.8882 22.5722 15.5047 23.8126 15.4023 25.0904C15.2999 26.3682 15.4811 27.6526 15.9333 28.8543C16.4933 30.2918 17.4403 31.8999 16.6909 33.2563C15.9416 34.6126 13.99 34.6775 12.483 35.1892C11.1898 35.6721 10.1088 36.5862 9.42741 37.773C8.74606 38.9598 8.50736 40.3443 8.75273 41.6865C8.9586 42.6449 9.41974 43.6032 9.22211 44.5697C9.02448 45.5361 8.14337 46.2752 7.47637 47.0549C6.64695 48.0313 6.09064 49.2045 5.86257 50.4583C5.6345 51.7121 5.74259 53.0029 6.17613 54.2028C6.60967 55.4026 7.35361 56.4699 8.33421 57.2989C9.31481 58.1279 10.498 58.6897 11.7666 58.9287C12.9112 59.1399 14.1629 59.0911 15.1593 59.6921C16.3039 60.3906 16.8062 61.7469 17.6297 62.8027C18.4245 63.8068 19.5106 64.5483 20.7434 64.9284C21.9762 65.3085 23.2971 65.3093 24.5303 64.9306C25.0192 64.7627 25.4841 64.5334 25.9137 64.2484C26.6877 65.3042 27.8982 66.0108 29.9651 66.0108L29.4875 39.3556C29.6382 39.682 29.8666 39.9677 30.1534 40.1883C30.4401 40.4089 30.7767 40.5579 31.1344 40.6226C35.4741 41.5891 36.0752 32.7771 35.1447 30.3812C36.7801 29.0646 38.2408 27.5502 39.4926 25.8737C40.6948 24.1275 41.7489 19.3764 41.4936 17.216C43.0582 17.3135 49.6953 15.145 48.9871 14.942Z" fill="#263238"/>
<path d="M30.7165 41.5235C30.5848 38.819 27.2168 38.2342 24.837 39.5906C23.5359 40.3377 22.5313 41.8402 22.6548 44.7153C22.976 52.3821 30.7165 50.4817 30.7165 50.2624C30.7165 50.0431 30.8483 44.6991 30.7165 41.5235Z" fill="#FFBF9D"/>
<path d="M28.1851 47.4523C28.1851 47.4523 28.0534 47.5579 27.831 47.6634C27.5146 47.8133 27.1516 47.8366 26.8182 47.7284C25.9947 47.4604 25.2371 46.2097 25.1712 44.8209C25.122 44.1654 25.2234 43.5075 25.4677 42.8961C25.5311 42.6548 25.6525 42.4321 25.8216 42.2469C25.9908 42.0617 26.2027 41.9194 26.4394 41.8321C26.5943 41.7815 26.7625 41.7872 26.9136 41.8483C27.0646 41.9094 27.1885 42.0218 27.2628 42.1651C27.3781 42.3763 27.3369 42.5306 27.3781 42.5387C27.4193 42.5468 27.5428 42.4006 27.4605 42.092C27.4143 41.902 27.3003 41.7348 27.1393 41.621C26.9169 41.4738 26.646 41.4158 26.3817 41.4585C26.0531 41.5229 25.7475 41.6716 25.4959 41.8898C25.2443 42.108 25.0556 42.3879 24.9489 42.7011C24.6472 43.3804 24.5172 44.1217 24.5701 44.8615C24.6854 46.4046 25.5418 47.8177 26.6864 48.1101C26.897 48.1614 27.1166 48.1654 27.3289 48.1218C27.5413 48.0782 27.741 47.9882 27.9134 47.8584C28.1769 47.6391 28.2427 47.4685 28.1851 47.4523Z" fill="#FF9A6C"/>
<path d="M38.2938 12.895C37.6829 13.2005 37.1506 13.6394 36.7375 14.1783C35.9717 15.2178 35.6752 17.2239 36.1693 19.4817V19.6766L35.9717 19.7172C34.8542 20.0148 33.8212 20.5623 32.9529 21.3172C32.0847 22.0722 31.4044 23.0143 30.965 24.0704C30.7238 24.6687 30.5873 25.3031 30.5615 25.9465C30.5812 26.6266 30.6639 27.3035 30.8085 27.9688C30.9561 28.6898 31.0551 29.4196 31.105 30.1535C31.1572 30.9552 30.9402 31.7516 30.4874 32.4194C29.5157 33.8732 27.9594 34.5879 26.6254 35.2782C25.2997 35.8514 24.0806 36.6392 23.0186 37.6091C21.2564 39.3112 20.2171 41.611 20.1118 44.0415C20.0527 45.6785 20.4034 47.3047 21.1329 48.7764C21.6516 49.8241 22.0881 50.3276 22.0387 50.4007C21.9151 50.2977 21.8045 50.1805 21.7093 50.0515C21.4186 49.6969 21.1622 49.3162 20.9435 48.9145C20.1096 47.4242 19.6892 45.7433 19.7247 44.0415C19.7794 41.4976 20.8299 39.0733 22.6563 37.2762C23.7491 36.2632 25.0074 35.4394 26.3783 34.8397C27.7206 34.1493 29.1863 33.4346 30.0263 32.1595C30.8662 30.8844 30.5039 29.4713 30.2733 28.0987C30.1274 27.3982 30.0475 26.6859 30.0345 25.9709C30.063 25.2678 30.2163 24.5751 30.4874 23.9242C30.9611 22.7999 31.6961 21.8011 32.6329 21.0083C33.5698 20.2155 34.6824 19.6508 35.8811 19.3599L35.7328 19.6035C35.2717 17.2401 35.634 15.161 36.5563 14.0727C36.877 13.6557 37.2951 13.3214 37.775 13.0981C38.1291 12.895 38.2856 12.8463 38.2938 12.895Z" fill="#455A64"/>
<path d="M25.28 50.3275C25.8924 49.682 26.6517 49.1893 27.4951 48.89H27.3222C27.4797 48.8544 27.6392 48.8273 27.7998 48.8088C28.0877 48.7287 28.389 48.7061 28.686 48.7424C28.9829 48.7786 29.2695 48.873 29.529 49.0199C30.488 49.364 31.2833 50.047 31.7606 50.9366C32.1322 51.7296 32.2757 52.608 32.1755 53.476C32.0753 54.3439 31.7352 55.168 31.1924 55.8583C30.8007 56.4863 30.2251 56.9825 29.5417 57.2813C28.8582 57.58 28.099 57.6675 27.3641 57.532C26.6292 57.3965 25.9533 57.0446 25.4254 56.5225C24.8975 56.0004 24.5424 55.3327 24.4071 54.6076C24.1746 53.8795 24.1328 53.1052 24.2854 52.3568C24.438 51.6085 24.7801 50.9103 25.28 50.3275Z" fill="#455A64"/>
<path d="M144.207 81.3765C144.207 81.3765 150.309 73.1168 152.442 72.865C154.574 72.6133 168.087 73.1168 169.973 72.865C171.859 72.6133 182.523 67.9921 182.523 67.9921C182.523 67.9921 184.417 68.6499 184.17 70.4286C183.923 72.2072 172.114 78.7695 170.706 79.0131C169.298 79.2568 157.918 80.1258 157.918 80.1258L151.025 90.8057L144.207 81.3765Z" fill="#FFBF9D"/>
<path d="M144.949 78.7457L119.183 103.793L82.5884 81.2065C80.5302 79.9421 78.2011 79.169 75.7866 78.9487L61.4254 77.495L55.6612 72.1915L50.9757 87.4358L27.9187 69.9337L23.6614 77.8685L8.32031 85.1211L23.0274 156.405C23.0274 156.405 22.9368 157.517 19.7829 166.281C18.8442 168.904 15.2786 181.825 15.8962 187.145L55.6859 187.478L97.0319 187.275L89.6208 162.642L85.2317 143.605C86.3434 120.28 86.8786 116.544 85.7587 110.81C85.7587 110.81 109.763 124.698 121.612 126.03C123.465 126.241 128.612 123.804 131.041 120.986C140.782 109.689 157.523 89.4175 157.523 89.4175L144.949 78.7457Z" fill="url(#paint0_linear_1461_9292)"/>
<path d="M16.8578 120.767L10.6242 143.45L52.6208 165.476L44.5673 181.825L-5.12041 162.333C-7.89915 161.289 -10.3009 159.454 -12.021 157.062C-13.9973 154.228 -15.4796 150.817 -13.5197 144.514L-2.81471 104.946C-2.13124 102.436 -0.970154 98.4483 0.215632 95.1997C1.28573 92.1159 3.12659 89.3478 5.56814 87.1511C6.42551 86.3923 7.35167 85.7126 8.33497 85.1207" fill="#214498"/>
<path d="M8.32568 85.0962L7.83161 85.4292C7.50222 85.6485 7.00814 85.9815 6.42349 86.4525C4.6811 87.8393 3.208 89.5261 2.07561 91.4311C0.552201 93.8676 -0.394782 97.2543 -1.61351 101.12C-2.83223 104.986 -3.86979 109.477 -5.22851 114.415L-9.55992 130.529C-10.334 133.42 -11.1382 136.411 -11.9727 139.503C-12.3844 141.046 -12.8044 142.611 -13.2326 144.197C-13.7514 145.778 -14.0803 147.414 -14.2125 149.07C-14.3443 150.751 -14.0998 152.439 -13.4961 154.016C-12.833 155.622 -11.8943 157.103 -10.721 158.394C-9.48856 159.706 -8.02344 160.785 -6.39782 161.578C-5.57436 161.992 -4.7509 162.309 -3.83685 162.658L-1.21001 163.689L20.6117 172.241L44.6486 181.67L44.3933 181.768C47.1766 176.083 49.8611 170.658 52.4303 165.452L52.5127 165.687L10.5737 143.604L10.4914 143.564V143.466L15.1357 126.76L16.3874 122.334C16.5356 121.838 16.6427 121.465 16.7168 121.197C16.7909 120.929 16.8403 120.815 16.8403 120.815C16.8403 120.815 16.8403 120.945 16.7497 121.205C16.6591 121.465 16.585 121.855 16.4533 122.35C16.1815 123.365 15.7863 124.86 15.2675 126.793L10.7302 143.531L10.6726 143.393L52.6691 165.37L52.8256 165.452L52.7515 165.606L44.731 181.93L44.6486 182.093L44.4757 182.028L20.4388 172.607L-1.38294 164.047L-4.01801 163.015C-4.84148 162.666 -5.77199 162.349 -6.61192 161.919C-8.27371 161.106 -9.7742 160.005 -11.0421 158.67C-11.6576 158.007 -12.209 157.29 -12.6891 156.526C-13.1698 155.781 -13.5779 154.992 -13.9078 154.171C-14.5245 152.543 -14.7746 150.803 -14.6407 149.07C-14.5 147.4 -14.1657 145.752 -13.6443 144.157C-13.2161 142.573 -12.8208 141.005 -12.3679 139.471C-11.5335 136.384 -10.71 133.393 -9.89754 130.496C-8.32472 124.713 -6.85896 119.321 -5.51672 114.399C-4.17447 109.477 -3.04633 105.019 -1.84408 101.128C-0.64182 97.238 0.371039 93.8757 1.92738 91.4229C3.08417 89.5155 4.58901 87.8358 6.36584 86.4687C6.97697 85.9553 7.63278 85.496 8.32568 85.0962Z" fill="#263238"/>
<path d="M18.9853 117.453C18.9029 117.453 19.257 115.926 19.4052 113.457C19.4879 112.006 19.4658 110.552 19.3394 109.104C19.1681 107.337 18.857 105.585 18.4088 103.866C17.9256 102.151 17.3089 100.476 16.5643 98.8545C15.9363 97.532 15.2211 96.2515 14.4233 95.0211C13.0399 92.9339 11.9529 91.7725 12.027 91.7238C12.3102 91.97 12.5694 92.2419 12.8011 92.5359C13.0948 92.8502 13.3698 93.181 13.6245 93.5268C13.9292 93.9247 14.2998 94.3389 14.6456 94.8993C15.4961 96.1139 16.2478 97.393 16.8937 98.7246C18.4716 101.984 19.4237 105.503 19.7017 109.104C19.8186 110.566 19.8186 112.036 19.7017 113.498C19.7017 114.123 19.5699 114.684 19.5041 115.171C19.4491 115.594 19.3721 116.014 19.2735 116.43C19.2084 116.779 19.112 117.121 18.9853 117.453Z" fill="#263238"/>
<path d="M79.9141 94.4847C80.2033 94.8115 80.4597 95.1651 80.6799 95.5406L81.0669 96.1172L81.4704 96.8481C81.8155 97.4282 82.1262 98.0275 82.4009 98.643L82.895 99.707C83.0432 100.097 83.1997 100.519 83.3644 100.901C83.702 101.713 83.9573 102.623 84.2702 103.557C84.8555 105.623 85.312 107.722 85.6371 109.843C86.1819 113.698 86.4132 117.59 86.3288 121.481C86.3288 122.975 86.2547 124.177 86.1971 125.014C86.1929 125.445 86.1488 125.874 86.0653 126.297C86.0299 125.867 86.0299 125.436 86.0653 125.006C86.0653 124.194 86.0653 122.967 86.0653 121.481C86.0558 117.609 85.7807 113.743 85.2419 109.908C84.9254 107.805 84.4854 105.723 83.9243 103.67C83.6196 102.736 83.3891 101.827 83.1009 101.023C82.9526 100.608 82.8044 100.21 82.6644 99.8369C82.5244 99.4633 82.3515 99.106 82.195 98.7649C81.9151 98.0745 81.6022 97.4816 81.3716 96.9537L81.001 96.2228C80.8775 96.0035 80.7622 95.8086 80.6469 95.6218C80.3688 95.265 80.1235 94.8845 79.9141 94.4847Z" fill="#263238"/>
<path d="M50.4023 88.6695C50.2898 88.6407 50.1818 88.597 50.0812 88.5396C49.8835 88.4422 49.5871 88.296 49.2083 88.0929C48.1221 87.5159 47.0936 86.8388 46.1368 86.0706H46.3509C44.3687 89.107 42.7285 92.3478 41.4595 95.7354L41.3442 96.0359L41.1137 95.8085L37.9763 92.706C33.9825 88.7589 30.384 85.161 27.7983 82.5459L24.7432 79.4353L23.9198 78.5662C23.819 78.4718 23.7305 78.3654 23.6562 78.2495C23.7774 78.3211 23.8882 78.4085 23.9856 78.5094C24.2162 78.7287 24.5044 78.9967 24.8585 79.3216L28.0041 82.3428C30.6475 84.9011 34.2789 88.4665 38.2645 92.4136L41.4019 95.5242L41.056 95.5973C42.341 92.1766 44.0385 88.9208 46.1121 85.9001L46.2027 85.762L46.3179 85.8676C47.2457 86.642 48.2342 87.3426 49.2742 87.963C49.6636 88.1771 50.0402 88.413 50.4023 88.6695Z" fill="#263238"/>
<path d="M61.1805 77.7301C61.2468 78.0698 61.2717 78.4161 61.2546 78.7616C61.2581 79.7045 61.1921 80.6463 61.057 81.5798C60.6104 84.6827 59.4866 87.6531 57.7632 90.2862L57.5161 90.6679L57.3432 90.9277L57.162 90.676C55.5763 88.5285 54.2653 86.1962 53.2588 83.732H53.5553C52.9953 85.0071 52.5177 86.0792 52.1472 86.9157C51.9926 87.3162 51.7967 87.6999 51.5625 88.0608C51.6576 87.642 51.7955 87.2338 51.9742 86.8426C52.3119 85.9898 52.74 84.9015 53.2588 83.5939L53.3988 83.2285L53.5553 83.5939C54.618 86.0027 55.9433 88.2902 57.5079 90.4161H57.162C57.2361 90.2943 57.3185 90.1643 57.4091 90.0425C59.0908 87.4513 60.2303 84.5547 60.7606 81.5229C61.1805 79.2082 61.09 77.7301 61.1805 77.7301Z" fill="#263238"/>
<path d="M66.8855 157.655C66.8244 157.424 66.7831 157.187 66.762 156.949C66.6961 156.445 66.6138 155.763 66.4985 154.91C66.2844 153.099 65.9797 150.549 65.6009 147.406C64.8269 141.079 63.7729 132.324 61.9036 122.773C60.9566 117.998 59.8614 113.49 58.7168 109.437C58.091 107.423 57.5475 105.49 56.9134 103.752C56.6087 102.867 56.3287 101.998 56.0323 101.186L55.1347 98.8467C54.5912 97.3442 53.9984 96.0285 53.4878 94.859L52.7961 93.2347L52.162 91.8865L51.3386 90.0185C51.2295 89.8032 51.136 89.5807 51.0586 89.3525C51.1946 89.5506 51.3131 89.7598 51.4127 89.9779C51.6432 90.4327 51.9562 91.05 52.3514 91.8134L53.0184 93.1453C53.2572 93.6407 53.4878 94.1849 53.7513 94.7697C54.2619 95.931 54.8794 97.2468 55.4476 98.7411C55.7358 99.4883 56.0488 100.268 56.3699 101.08C56.6911 101.892 56.9628 102.761 57.2757 103.647C57.9263 105.409 58.4862 107.342 59.1203 109.332C60.2896 113.393 61.4013 117.908 62.3483 122.692C64.2257 132.259 65.2304 141.03 65.9303 147.373C66.2679 150.549 66.5232 153.115 66.6961 154.894C66.773 155.755 66.8306 156.437 66.8691 156.941C66.8892 157.178 66.8947 157.417 66.8855 157.655Z" fill="#263238"/>
<path d="M121.12 114.213C120.769 113.798 120.491 113.329 120.297 112.824C119.755 111.643 119.357 110.402 119.111 109.128C118.868 107.852 118.777 106.552 118.839 105.254C118.824 104.703 118.908 104.153 119.086 103.63C119.118 105.43 119.266 107.226 119.531 109.007C119.945 110.774 120.476 112.513 121.12 114.213Z" fill="#263238"/>
<path d="M298.875 11.702H208.811C206.857 11.702 204.984 12.4754 203.603 13.8521C202.221 15.2288 201.445 17.096 201.445 19.0429V92.1108C201.445 94.0577 202.221 95.9248 203.603 97.3015C204.984 98.6782 206.857 99.4516 208.811 99.4516H220.41V114.53L235.566 99.4516H298.875C300.823 99.4424 302.687 98.665 304.061 97.2893C305.434 95.9136 306.206 94.0517 306.206 92.1108V19.0429C306.206 17.102 305.434 15.24 304.061 13.8644C302.687 12.4887 300.823 11.7112 298.875 11.702Z" fill="white"/>
<path d="M298.87 11.702C298.87 11.702 299.135 11.702 299.665 11.702C300.44 11.7845 301.198 11.9862 301.911 12.2999C303.08 12.8208 304.094 13.6351 304.854 14.6634C305.337 15.3206 305.711 16.0504 305.963 16.8253C306.22 17.7171 306.333 18.644 306.298 19.5712C306.298 27.3987 306.298 38.7714 306.354 52.9804C306.354 60.0919 306.354 67.9124 306.354 76.3516C306.354 80.5735 306.354 84.946 306.354 89.4692V91.1654C306.354 91.7354 306.354 92.3124 306.312 92.8963C306.182 94.084 305.77 95.2239 305.111 96.2213C304.451 97.2187 303.562 98.0449 302.517 98.6314C301.45 99.2271 300.253 99.554 299.03 99.5837H235.56L235.686 99.5281L220.53 114.606L220.223 114.919V99.4655L220.404 99.6463H209.356C207.623 99.7509 205.905 99.2763 204.474 98.2977C203.063 97.3171 202.028 95.8883 201.537 94.2449C201.308 93.4336 201.204 92.5919 201.231 91.7493V74.7319C201.231 61.941 201.231 49.595 201.231 37.8399C201.231 31.9589 201.231 26.2308 201.231 20.6557C201.231 19.9605 201.231 19.2653 201.231 18.5702C201.265 17.8569 201.411 17.1533 201.663 16.4847C202.142 15.1839 202.972 14.0406 204.063 13.1817C205.154 12.3228 206.462 11.7817 207.843 11.6186C208.511 11.5657 209.181 11.5471 209.851 11.563H211.825H241.007L283.267 11.6186L294.755 11.6534L283.267 11.6881L241.007 11.7437H211.825H209.851C209.193 11.7272 208.534 11.7458 207.877 11.7994C206.553 11.9586 205.299 12.4799 204.254 13.3056C203.209 14.1313 202.414 15.2292 201.956 16.4778C201.44 17.7429 201.523 19.1263 201.523 20.5166C201.523 26.0779 201.523 31.806 201.523 37.7009C201.523 49.456 201.523 61.802 201.523 74.5928V84.2764C201.523 85.903 201.523 87.5251 201.523 89.1425V91.6103C201.494 92.4178 201.593 93.2249 201.816 94.0016C202.281 95.5675 203.264 96.93 204.606 97.8667C205.974 98.7909 207.609 99.2405 209.258 99.1458H220.488V114.404L220.181 114.279C225.384 109.093 230.517 103.998 235.337 99.2014L235.386 99.1527H299.009C300.172 99.1646 301.321 98.8951 302.357 98.3672C303.365 97.7995 304.223 97.0013 304.861 96.0384C305.482 95.0861 305.873 94.0036 306.005 92.8755C306.047 92.3193 306.047 91.7493 306.047 91.1723V89.4761C306.047 84.953 306.047 80.5805 306.047 76.3585C306.047 67.9193 306.047 60.0988 306.047 52.9874C306.047 38.7784 306.089 27.4056 306.102 19.5782C306.146 18.663 306.038 17.7469 305.782 16.867C305.54 16.0999 305.174 15.3768 304.701 14.726C303.957 13.7043 302.963 12.8903 301.813 12.3624C300.884 11.9539 299.885 11.7296 298.87 11.702Z" fill="#263238"/>
<path d="M217.973 53.2725C218.778 53.2725 219.431 52.622 219.431 51.8196C219.431 51.0172 218.778 50.3667 217.973 50.3667C217.168 50.3667 216.516 51.0172 216.516 51.8196C216.516 52.622 217.168 53.2725 217.973 53.2725Z" fill="white"/>
<path d="M263.329 92.7505C264.134 92.7505 264.787 92.1 264.787 91.2976C264.787 90.4952 264.134 89.8447 263.329 89.8447C262.524 89.8447 261.871 90.4952 261.871 91.2976C261.871 92.1 262.524 92.7505 263.329 92.7505Z" fill="white"/>
<path d="M249.516 20.7043C250.321 20.7043 250.974 20.0539 250.974 19.2515C250.974 18.4491 250.321 17.7986 249.516 17.7986C248.711 17.7986 248.059 18.4491 248.059 19.2515C248.059 20.0539 248.711 20.7043 249.516 20.7043Z" fill="white"/>
<path d="M259.946 48.3856C260.751 48.3856 261.404 47.7351 261.404 46.9327C261.404 46.1303 260.751 45.4799 259.946 45.4799C259.141 45.4799 258.488 46.1303 258.488 46.9327C258.488 47.7351 259.141 48.3856 259.946 48.3856Z" fill="white"/>
<path d="M586.959 118.544H391.428C384.632 118.544 379.156 112.225 379.156 104.426V-55.524C379.156 -63.3328 384.651 -69.6515 391.428 -69.6515H586.959C593.755 -69.6515 599.221 -63.3328 599.221 -55.524V104.426C599.221 112.225 593.736 118.544 586.959 118.544Z" fill="white"/>
<path d="M587.249 118.496H587.764C588.273 118.473 588.78 118.409 589.278 118.302C591.248 117.912 593.076 116.999 594.569 115.66C597.032 113.472 598.663 110.507 599.191 107.261C599.448 105.191 599.529 103.104 599.433 101.02C599.433 98.7816 599.433 96.4012 599.433 93.8789C599.433 73.6843 599.433 44.4713 599.356 8.37847C599.356 -9.66795 599.356 -29.4368 599.356 -50.6474C599.356 -51.9827 599.356 -53.3084 599.356 -54.6437C599.397 -55.9762 599.296 -57.3094 599.055 -58.6207C598.55 -61.2635 597.32 -63.7152 595.501 -65.7038C593.679 -67.7265 591.188 -69.0282 588.482 -69.3711C587.142 -69.4872 585.735 -69.3711 584.346 -69.4389H545.512H391.407C390.564 -69.4639 389.72 -69.4251 388.883 -69.3228C388.472 -69.2692 388.066 -69.1818 387.669 -69.0615L387.077 -68.8776L386.504 -68.6357C384.982 -67.9558 383.649 -66.9162 382.621 -65.607C381.539 -64.3146 380.724 -62.8216 380.223 -61.214C379.773 -59.5928 379.583 -57.9109 379.66 -56.2306V-35.9103C379.66 -22.4988 379.66 -9.29379 379.66 3.7048C379.66 29.6762 379.66 54.7283 379.66 78.5999V96.2689C379.66 99.1718 379.66 102.075 379.66 104.92C379.685 106.332 379.914 107.733 380.339 109.08C380.736 110.421 381.335 111.694 382.116 112.854C382.87 114.011 383.804 115.039 384.883 115.902C385.956 116.754 387.172 117.41 388.475 117.838C389.109 118.037 389.759 118.186 390.417 118.283C391.087 118.283 391.757 118.37 392.446 118.35H412.611H471.212L556.065 118.428L579.249 118.408L556.182 118.457L471.328 118.534H412.727H392.514C391.834 118.534 391.135 118.534 390.436 118.457C389.738 118.369 389.049 118.216 388.378 118.002C387.029 117.563 385.767 116.892 384.65 116.018C383.538 115.124 382.572 114.063 381.786 112.874C380.986 111.682 380.371 110.377 379.961 109.003C379.537 107.661 379.298 106.268 379.252 104.862C379.204 101.959 379.252 99.1041 379.252 96.1528V78.5515C379.252 54.6799 379.252 29.6278 379.252 3.65642C379.252 -9.32927 379.252 -22.5343 379.252 -35.9586V-56.279C379.175 -58.0052 379.372 -59.7326 379.835 -61.3978C380.309 -63.0466 381.1 -64.5879 382.165 -65.936C383.252 -67.3113 384.662 -68.3981 386.271 -69.1002L386.873 -69.3615L387.495 -69.5453C387.913 -69.6766 388.341 -69.7705 388.776 -69.8259C389.636 -69.9363 390.503 -69.9752 391.368 -69.942H545.473H584.307C585.705 -69.942 587.074 -69.942 588.492 -69.8743C591.294 -69.5016 593.869 -68.1425 595.754 -66.0425C597.623 -63.9931 598.887 -61.4678 599.404 -58.7465C599.648 -57.4093 599.752 -56.0506 599.715 -54.6921V-50.6957C599.715 -29.4755 599.715 -9.70665 599.715 8.3301C599.715 44.423 599.657 73.6359 599.637 93.8305C599.637 96.356 599.637 98.7364 599.637 100.972C599.722 103.065 599.634 105.162 599.375 107.242C598.827 110.514 597.164 113.497 594.667 115.689C593.156 117.026 591.311 117.928 589.327 118.302C588.825 118.407 588.315 118.463 587.803 118.467L587.249 118.496Z" fill="#263238"/>
<path d="M357.47 66.0588C353.48 65.6234 349.014 65.3137 349.014 65.3137L345.053 64.8202C345.109 65.0823 345.19 65.3383 345.296 65.5847C345.522 66.0374 345.629 66.5403 345.606 67.0458C345.48 68.0134 344.451 68.5553 343.509 68.7295C342.515 68.902 341.494 68.8144 340.544 68.4752C339.594 68.1359 338.749 67.5567 338.092 66.7942C337.487 66.0468 337.08 65.1592 336.911 64.2137C336.741 63.2682 336.813 62.2953 337.121 61.3851C336.899 60.8811 336.777 60.3388 336.762 59.7885C336.665 56.0631 341.102 52.928 341.102 52.928L339.742 52.5603C339.742 52.5603 335.422 53.1505 333.15 60.0207C332.827 61.0543 332.136 61.935 331.208 62.4979C330.927 62.6876 330.606 62.8114 330.27 62.86C329.934 62.9086 329.591 62.8807 329.267 62.7785C327.607 62.1882 327.597 60.8432 328.956 56.5566C330.315 52.27 333.063 48.5349 335.937 47.5382C337.261 47.0375 338.621 46.6333 340.004 46.3287C340.004 46.3287 327.917 42.3323 327.17 42.0421C324.985 41.2292 323.529 39.5649 323.946 38.0747C324.209 37.1071 325.267 36.0911 327.83 36.9716C330.053 37.7264 353.849 42.6226 353.849 42.6226L364.247 45.3998L372.451 49.0864L366.693 63.4075L365.723 64.0364C363.295 65.6546 360.374 66.3705 357.47 66.0588Z" fill="#AE7461"/>
<path d="M362.744 47.0739C362.647 48.448 361.268 49.4156 359.919 49.7156C358.569 50.0155 357.142 49.8414 355.773 50.0446C351.667 50.6348 348.502 54.3699 344.366 54.7763C343.793 54.8344 343.065 54.7182 342.89 54.1764C342.715 53.6345 343.171 53.2087 343.57 52.8313L353.802 43.7065" fill="#AE7461"/>
<path d="M353.797 43.7065C353.356 43.9467 352.948 44.2426 352.584 44.5871C351.846 45.187 350.788 46.0772 349.487 47.1804L344.953 51.109C344.535 51.4863 344.098 51.8637 343.652 52.2508C343.205 52.6378 342.594 52.9959 342.477 53.9248C342.471 54.1546 342.535 54.3809 342.662 54.573C342.789 54.7651 342.971 54.9137 343.186 54.9989C343.536 55.1414 343.916 55.1978 344.293 55.1634C344.969 55.1008 345.636 54.9645 346.283 54.757C348.865 53.8861 350.856 52.3185 352.855 51.3702C353.773 50.9062 354.755 50.5801 355.768 50.4026C356.739 50.2478 357.661 50.2671 358.525 50.1994C359.233 50.2127 359.936 50.0714 360.583 49.7856C361.23 49.4998 361.807 49.0762 362.273 48.5447C362.448 48.3531 362.579 48.1256 362.656 47.8781C362.733 47.6307 362.755 47.3694 362.719 47.1126C362.568 47.5651 362.338 47.9875 362.04 48.3609C361.57 48.8067 361.012 49.1511 360.403 49.3726C359.793 49.594 359.144 49.6877 358.496 49.6478C357.553 49.641 356.61 49.683 355.671 49.7736C354.579 49.9322 353.517 50.2586 352.525 50.7413C350.428 51.7089 348.419 53.2474 346.021 54.0409C345.44 54.2292 344.841 54.3557 344.234 54.4183C343.661 54.4667 343.166 54.2634 343.263 53.9635C343.36 53.6635 343.729 53.2087 344.176 52.8217L345.458 51.6605L349.875 47.6061C351.127 46.445 352.127 45.4967 352.788 44.829C353.448 44.1613 353.836 43.7452 353.797 43.7065Z" fill="#6F4439"/>
<path d="M341.215 52.7732C340.359 52.58 339.47 52.58 338.613 52.7732C337.717 53.0388 336.931 53.5851 336.37 54.3311C335.678 55.2634 335.138 56.2986 334.768 57.3985C334.385 58.5389 333.887 59.6378 333.283 60.6788C332.762 61.5467 332.022 62.2639 331.137 62.7592C330.829 62.925 330.486 63.0174 330.136 63.0291C329.785 63.0409 329.437 62.9717 329.118 62.8269C328.691 62.6044 328.526 62.3915 328.536 62.3721C328.545 62.3528 328.778 62.4979 329.196 62.6431C329.488 62.7432 329.8 62.7769 330.107 62.7418C330.415 62.7066 330.71 62.6035 330.972 62.4399C331.778 61.9454 332.446 61.2565 332.914 60.4369C333.481 59.4114 333.953 58.336 334.322 57.2243C334.713 56.0752 335.294 54.9992 336.04 54.0408C336.677 53.2408 337.561 52.6727 338.555 52.4248C339.218 52.2628 339.911 52.2628 340.574 52.4248C340.812 52.4893 341.032 52.6086 341.215 52.7732Z" fill="#6F4439"/>
<path d="M326.328 41.7031C327.15 41.9011 327.955 42.1632 328.736 42.4869L334.474 44.5093L340.25 46.4446C341.067 46.661 341.863 46.9492 342.629 47.3057C341.784 47.2232 340.95 47.048 340.143 46.7832C338.629 46.3768 336.561 45.7575 334.318 44.9834C332.076 44.2093 330.047 43.4255 328.61 42.8159C327.807 42.5368 327.042 42.1632 326.328 41.7031Z" fill="#6F4439"/>
<path d="M342.982 56.3925C342.832 56.6103 342.66 56.8114 342.467 56.9924C342.221 57.2237 342.028 57.505 341.901 57.8172C341.773 58.1294 341.715 58.4652 341.729 58.8019C341.762 59.0183 341.852 59.2222 341.99 59.3923C342.129 59.5624 342.31 59.6926 342.516 59.7695C343.026 59.9778 343.561 60.1178 344.108 60.1856C344.803 60.2769 345.439 60.6216 345.894 61.1532C346.116 61.4505 346.263 61.7959 346.323 62.1611C346.384 62.5262 346.357 62.9005 346.244 63.253C346.121 63.6044 345.928 63.9273 345.676 64.2018C345.424 64.4763 345.118 64.6967 344.778 64.8496C344.161 65.1498 343.467 65.2577 342.788 65.1592C341.718 64.9524 340.687 64.5836 339.729 64.0658C339.068 63.745 338.467 63.3129 337.953 62.7885C337.757 62.5987 337.613 62.3622 337.535 62.1015C337.584 62.1015 337.729 62.3241 338.098 62.6531C338.643 63.0973 339.243 63.4682 339.885 63.7562C340.83 64.2035 341.828 64.5287 342.855 64.7238C343.449 64.813 344.056 64.705 344.583 64.4165C345.109 64.128 345.526 63.6749 345.768 63.1272C345.863 62.8446 345.892 62.5439 345.852 62.2485C345.811 61.9531 345.703 61.671 345.535 61.4242C345.146 61.0021 344.62 60.7312 344.05 60.6597C343.467 60.5674 342.899 60.3982 342.36 60.1566C342.099 60.0487 341.872 59.8735 341.701 59.649C341.531 59.4246 341.423 59.1589 341.389 58.8793C341.383 58.4943 341.467 58.1132 341.636 57.7669C341.804 57.4205 342.053 57.1187 342.36 56.8859C342.536 56.6861 342.747 56.519 342.982 56.3925Z" fill="#6F4439"/>
<path d="M344.439 64.5203C344.439 64.5203 344.721 64.5203 345.099 64.8203C345.357 65.0404 345.56 65.3181 345.69 65.6309C345.819 65.9437 345.873 66.2826 345.847 66.6201C345.791 67.1274 345.601 67.6109 345.298 68.0221C344.995 68.4332 344.588 68.7573 344.119 68.9618C342.979 69.4451 341.698 69.4763 340.536 69.0489C339.383 68.6675 338.383 67.9283 337.682 66.9394C337.119 66.1363 336.784 65.1971 336.711 64.2204C336.653 63.5682 336.723 62.9111 336.915 62.2851C337.051 61.8497 337.187 61.6271 337.216 61.6368C337.046 62.4705 336.996 63.3243 337.07 64.172C337.18 65.0689 337.513 65.9241 338.041 66.6588C338.703 67.5566 339.625 68.2318 340.682 68.5941C341.717 68.9834 342.86 68.9834 343.895 68.5941C344.3 68.4305 344.657 68.1671 344.932 67.8287C345.207 67.4902 345.392 67.0877 345.468 66.6588C345.505 66.3646 345.477 66.066 345.387 65.7836C345.296 65.5012 345.145 65.2418 344.944 65.0235C344.672 64.6461 344.42 64.559 344.439 64.5203Z" fill="#6F4439"/>
<path d="M355.384 59.0246C355.408 58.6145 355.553 58.2207 355.801 57.8924C356.365 57.0062 357.204 56.327 358.189 55.9572V56.4023C357.704 56.17 357.218 55.8991 356.675 55.5895C354.924 54.6155 353.484 53.1703 352.52 51.4189C353.849 52.8102 355.327 54.0529 356.927 55.125C357.422 55.425 357.898 55.6959 358.384 55.9281L358.898 56.1797L358.354 56.3636C357.441 56.6971 356.642 57.2848 356.053 58.0569C355.617 58.6375 355.452 59.0536 355.384 59.0246Z" fill="#6F4439"/>
<path d="M334.79 52.2897C334.887 52.1929 335.596 52.9477 335.674 54.1476C335.751 55.3474 335.188 56.2086 335.082 56.0828C334.975 55.957 335.256 55.1926 335.169 54.1476C335.082 53.1025 334.674 52.3671 334.79 52.2897Z" fill="#6F4439"/>
<path d="M462.465 29.3857C462.465 29.3857 436.708 73.21 428.135 77.4773C419.563 81.7445 388.553 75.542 381.35 73.8777C373.165 71.9617 362.738 68.7298 362.738 68.7298L365.787 44.3938L372.534 44.5389C372.534 44.5389 410.767 48.4095 412.98 46.6581C415.194 44.9066 429.902 16.8065 429.902 16.8065C429.902 16.8065 439.145 -1.79151 442.456 -6.04911C447.31 -12.3 451.378 -12.3 451.378 -12.3L462.465 29.3857Z" fill="#ABC4FF"/>
<path d="M431.535 118.215C432.215 83.4379 435.351 12.7424 435.351 12.7424L451.389 -12.2226C455.023 -13.221 458.73 -13.9328 462.476 -14.3514C468.612 -15.0287 469.651 -15.6093 469.651 -15.6093L474.117 -22.6247L510.922 -24.8019L516.544 -14.4095C516.544 -14.4095 539.582 -2.4398 542.65 -0.756109C545.718 0.927578 525.718 83.4283 525.718 83.4283L529.602 118.263L431.535 118.215Z" fill="#ABC4FF"/>
<path d="M463.558 118.214C463.694 112.118 464.014 104.851 464.441 96.8004C464.868 88.7497 465.567 79.8958 466.48 70.6259C467.393 61.3559 468.577 52.6085 469.82 44.5771C471.062 36.5457 472.46 29.4626 473.888 23.5116C474.227 22.0311 474.548 20.6087 474.858 19.2637C475.169 17.9187 475.548 16.6801 475.829 15.5093C476.441 13.1579 476.975 11.1356 477.509 9.50994L478.635 5.72648C478.752 5.32975 478.839 5.00075 478.917 4.75884C478.954 4.64942 478.977 4.53554 478.985 4.42017C478.924 4.51967 478.879 4.62718 478.849 4.73949C478.752 4.99107 478.645 5.31039 478.499 5.70712C478.198 6.6167 477.771 7.86495 477.237 9.45187C476.703 11.0388 476.101 13.0902 475.451 15.4319C475.121 16.6027 474.761 17.8606 474.392 19.1863C474.023 20.512 473.723 21.9441 473.363 23.4245C471.878 29.3755 470.509 36.5263 469.14 44.4997C467.771 52.473 466.703 61.2978 465.742 70.6259C464.781 79.9539 464.208 88.7691 463.8 96.8295C463.393 104.89 463.14 112.166 463.062 118.272" fill="#263238"/>
<path d="M435.354 12.7612C435.218 13.5478 435.143 14.3436 435.13 15.1416C435.023 16.6705 434.917 18.8864 434.81 21.6248C434.586 27.1113 434.402 34.6782 434.179 43.0386C433.955 51.399 433.674 58.9659 433.412 64.4427C433.276 67.094 433.159 69.2809 433.082 70.9259C433.004 71.7169 432.987 72.5127 433.033 73.3062C433.205 72.5294 433.312 71.7397 433.353 70.9452C433.519 69.4163 433.713 67.2101 433.907 64.4717C434.305 59.0046 434.674 51.428 434.878 43.0579C435.082 34.6879 435.208 27.121 435.305 21.6441C435.305 18.9928 435.373 16.8059 435.392 15.1513C435.437 14.3547 435.424 13.5559 435.354 12.7612Z" fill="#263238"/>
<g opacity="0.3">
<path d="M436.628 72.3869C436.845 71.3097 437.328 70.3033 438.033 69.4587C438.738 68.614 439.643 67.9576 440.667 67.5487C442.737 66.7467 444.94 66.3397 447.162 66.3488C476.186 65.0662 504.616 74.8159 526.704 93.6265L527.83 101.368C520.831 104.319 512.714 102.335 505.772 99.2097C498.831 96.0843 492.239 91.9815 484.763 90.501C478.287 89.2528 471.317 90.0946 465.346 87.3368C461.579 85.5951 458.482 82.4987 454.521 81.2601C450.997 80.1279 447.133 80.544 443.521 79.7119C439.909 78.8797 436.171 76.0348 436.628 72.3869Z" fill="black"/>
</g>
<path d="M542.638 -0.756226C546.344 1.2462 549.57 4.02661 552.093 7.39297C554.616 10.7593 556.375 14.6314 557.25 18.7416C559.191 27.3246 564.813 50.9252 564.813 50.9252C564.813 50.9252 570.919 79.0835 570.046 84.5409C569.172 89.9984 567.337 102.191 555.415 103.623C543.493 105.055 502.017 89.9984 502.017 89.9984L490.688 85.4021L495.047 64.7141L514.522 69.5522L533.609 71.1488L531.036 53.9539L526.813 42.9326C526.813 42.9326 527.046 30.8758 531.668 20.8221C536.289 10.7683 542.638 -0.756226 542.638 -0.756226Z" fill="#ABC4FF"/>
<path d="M471.546 54.9015L456.497 24.5467C455.992 23.5332 455.212 22.6807 454.247 22.0856C453.281 21.4906 452.167 21.1766 451.031 21.1793H413.226C412.907 21.1782 412.592 21.2599 412.314 21.4164C412.035 21.5729 411.802 21.7987 411.638 22.0719C411.473 22.3451 411.383 22.6562 411.376 22.9747C411.368 23.2932 411.444 23.6082 411.595 23.8887L437.187 71.1191C437.542 71.7699 438.067 72.313 438.706 72.6911C439.345 73.0693 440.075 73.2683 440.818 73.2672H480.041L471.546 54.9015Z" fill="#455A64"/>
<path d="M411.84 24.1412C412.088 24.1986 412.343 24.2214 412.597 24.2089H414.762H422.733L448.946 23.9864C450.162 23.976 451.362 24.2617 452.441 24.8185C453.426 25.4438 454.227 26.3187 454.762 27.3537C455.859 29.4245 456.781 31.592 457.742 33.5563L462.752 44.1713C464.179 47.0742 465.344 49.5029 466.198 51.264L467.169 53.1993C467.268 53.4323 467.399 53.6505 467.558 53.8476C467.5 53.6036 467.415 53.3667 467.305 53.1412C467.082 52.6187 466.8 51.9704 466.451 51.206C465.655 49.4158 464.509 46.9774 463.218 44.0068L458.363 33.3628C457.393 31.3694 456.529 29.2697 455.393 27.0925C454.803 25.9467 453.914 24.9806 452.82 24.296C451.646 23.6699 450.336 23.3378 449.004 23.3284C438.704 23.3961 429.442 23.6186 422.713 23.7541L414.752 23.9767L412.587 24.0734C412.337 24.0701 412.086 24.0929 411.84 24.1412Z" fill="#263238"/>
<path d="M435.137 30.788C434.958 30.8534 434.796 30.9594 434.665 31.0976C434.534 31.2358 434.437 31.4024 434.381 31.5844C434.326 31.7664 434.314 31.9587 434.345 32.1463C434.377 32.3338 434.452 32.5115 434.564 32.6653C434.776 32.9841 435.083 33.2279 435.443 33.3618C435.802 33.4957 436.195 33.5126 436.564 33.4103C436.81 33.357 437.037 33.2391 437.221 33.069C437.405 32.8988 437.541 32.6826 437.613 32.4427C437.632 32.0699 437.53 31.7007 437.322 31.3904C437.114 31.08 436.811 30.845 436.457 30.7203C436.018 30.6362 435.565 30.6595 435.137 30.788Z" fill="white"/>
<path d="M494.667 66.5813L492.055 63.93C492.055 63.93 488.23 58.4241 486.667 56.7114C485.104 54.9987 475.696 48.9703 475.696 48.9703C475.696 48.9703 471.172 42.9323 470.512 42.9323C469.852 42.9323 467.599 43.3193 468.201 46.1351C468.761 48.9223 469.593 51.6479 470.687 54.273L450.619 54.7084C449.993 54.7125 449.376 54.8532 448.811 55.1207C448.245 55.3882 447.746 55.7759 447.347 56.2566C446.823 56.9146 446.6 57.65 447.541 58.1145C449.629 59.1402 458.153 61.2109 458.153 61.2109L454.347 60.2433C454.347 60.2433 453.532 63.8429 455.939 65.5459C456.879 66.1094 457.74 66.7925 458.502 67.578C458.502 67.578 458.619 70.984 459.667 72.3581C460.716 73.7321 472.017 79.4799 472.017 79.4799C472.017 79.4799 479.25 81.599 482.9 81.4152C486.551 81.2313 490.318 83.2924 490.735 83.3988C491.152 83.5053 494.667 66.5813 494.667 66.5813Z" fill="#AE7461"/>
<path d="M468.719 54.3311C468.719 54.5343 471.253 54.6311 474.359 54.9601C477.466 55.2891 480.029 55.4536 480.049 55.231C480.068 55.0085 477.563 54.6021 474.427 54.2634C471.292 53.9247 468.709 54.1473 468.719 54.3311Z" fill="#6F4439"/>
<path d="M471.395 63.1364C471.463 62.9235 467.803 61.9365 463.201 61.414C460.9 61.1334 458.822 60.9205 457.327 60.756C456.518 60.6066 455.694 60.545 454.871 60.5722C455.616 60.9411 456.422 61.1707 457.25 61.2495C458.745 61.5398 460.822 61.8301 463.075 62.1107C467.696 62.6332 471.347 63.3009 471.395 63.1364Z" fill="#6F4439"/>
<path d="M471.402 69.63C471.402 69.4268 468.49 69.3397 464.946 68.7301C461.402 68.1205 458.616 67.2593 458.548 67.4528C458.48 67.6463 461.208 68.8172 464.83 69.3881C468.451 69.959 471.412 69.8138 471.402 69.63Z" fill="#6F4439"/>
<path d="M470.188 76.9063C470.382 76.9063 470.673 76.1612 470.838 75.1645C471.003 74.1679 470.984 73.3454 470.79 73.3067C470.595 73.268 470.304 74.0614 470.139 75.0484C469.974 76.0354 469.993 76.8772 470.188 76.9063Z" fill="#6F4439"/>
<path d="M471.985 68.1968C472.179 68.1968 472.286 67.5388 472.635 66.8518C472.985 66.1647 473.412 65.6809 473.295 65.5164C473.179 65.3519 472.422 65.6713 471.994 66.5518C471.567 67.4324 471.79 68.2258 471.985 68.1968Z" fill="#6F4439"/>
<path d="M474.278 59.4786C474.472 59.4786 474.676 59.0818 474.919 58.6077C475.161 58.1335 475.365 57.7271 475.229 57.582C475.093 57.4369 474.589 57.6981 474.259 58.2981C473.928 58.898 474.084 59.4592 474.278 59.4786Z" fill="#6F4439"/>
<path d="M479.012 4.40164C479.411 4.2132 479.794 3.99317 480.157 3.74365L483.322 1.86643C484.682 1.0633 486.332 0.105335 488.177 -1.03648C490.27 -2.25892 492.263 -3.6437 494.138 -5.17796L493.613 -5.26504C495.143 -2.30579 495.879 0.997688 495.749 4.32424V5.11769L496.351 4.60485C502.254 -0.368805 507.545 -4.94573 511.225 -8.41955C513.069 -10.1516 514.526 -11.5837 515.506 -12.6094C516.038 -13.1157 516.525 -13.666 516.963 -14.2544C516.375 -13.8142 515.824 -13.3289 515.312 -12.8029L510.885 -8.77757C507.128 -5.41019 501.798 -0.901008 495.895 4.07264L496.477 4.35327C496.613 0.907435 495.836 -2.51329 494.225 -5.56501L494.021 -5.93271L493.701 -5.65211C491.867 -4.12703 489.92 -2.74257 487.876 -1.51061L483.138 1.52777C481.808 2.36961 480.759 3.06631 480.07 3.56948C479.681 3.79779 479.325 4.07773 479.012 4.40164Z" fill="#263238"/>
<path d="M469.65 -15.6483C469.335 -15.1979 469.078 -14.7104 468.883 -14.1969C468.446 -13.2292 467.854 -11.8262 467.174 -10.0651C466.495 -8.30396 465.718 -6.19452 465 -3.80445C464.815 -3.20452 464.641 -2.57555 464.505 -1.92723C464.417 -1.55984 464.388 -1.18118 464.417 -0.804772C464.445 -0.678254 464.522 -0.567764 464.631 -0.49716C464.74 -0.426556 464.872 -0.4015 465 -0.427395C465.119 -0.444537 465.227 -0.50696 465.301 -0.601578L465.378 -0.698332L465.699 -1.09507L468.291 -4.42374L471.64 -8.74908L471.068 -8.79746C473.165 -4.87853 475.068 -1.5305 476.514 0.801508C477.233 1.97235 477.835 2.88192 478.271 3.50121C478.474 3.83395 478.722 4.13684 479.009 4.4011C478.874 4.03685 478.691 3.69197 478.466 3.37541C478.038 2.61098 477.495 1.68206 476.883 0.588627C475.553 -1.79176 473.728 -5.21719 471.67 -9.08774L471.427 -9.56189L471.097 -9.13613C470.039 -7.78143 468.903 -6.33965 467.738 -4.83982L465.165 -1.57889L464.864 -1.17248L464.786 -1.07571L464.912 -0.949927L465.097 -0.998298C465.092 -1.28138 465.121 -1.56403 465.184 -1.84015C465.31 -2.45944 465.466 -3.06904 465.631 -3.6593C466.31 -6.03968 467.048 -8.15881 467.65 -9.93927L469.145 -14.1291C469.362 -14.6182 469.531 -15.1269 469.65 -15.6483Z" fill="#263238"/>
<path d="M529.471 43.7743C529.445 43.9346 529.445 44.0978 529.471 44.2581C529.471 44.6258 529.568 45.0903 529.645 45.6709C529.82 46.9578 530.073 48.7673 530.393 51.0509L533.257 70.6262C533.257 70.7907 533.257 70.9842 533.257 71.1874L533.568 70.8875L513.18 68.9522L495.083 64.3946L494.724 64.3075L494.646 64.6656C494.296 66.3009 493.928 68.0523 493.559 69.8134C492.432 75.1741 491.335 80.3897 490.297 85.3536L490.238 85.6343L490.5 85.7407C502.967 90.879 515.746 95.229 528.762 98.7651C533.616 100.071 537.5 101 540.247 101.6L543.344 102.268L544.15 102.423C544.243 102.438 544.338 102.438 544.432 102.423L544.17 102.326L543.373 102.113L540.296 101.339C537.616 100.652 533.723 99.665 528.879 98.3006C515.952 94.6397 503.251 90.2294 490.84 85.0924L491.054 85.4698C492.102 80.5155 493.199 75.2999 494.335 69.9392C494.704 68.1781 495.073 66.4267 495.413 64.7914L494.986 65.0526L513.092 69.5812H513.151L533.616 71.4197H533.946V71.1004C533.946 70.9068 533.946 70.7036 533.946 70.5391C532.655 62.3916 531.597 55.7053 530.849 51.0122C530.461 48.7286 530.17 46.9288 529.956 45.6515L529.694 44.2484C529.634 44.084 529.559 43.9253 529.471 43.7743Z" fill="#263238"/>
<g opacity="0.3">
<path d="M527.416 30.4694C529.057 39.3136 530.231 49.2899 531.649 58.1728C531.319 58.5889 531.503 59.9145 531.163 60.3306C529.513 55.7827 527.338 50.2962 526.406 45.5645C525.474 40.8328 526.134 35.1334 527.416 30.4694Z" fill="black"/>
</g>
<g opacity="0.3">
<path d="M492.305 2.1272L480.043 3.80121C484.945 1.17958 489.587 -1.89831 493.907 -5.39134C495.441 -1.83043 496.295 -0.553158 496.043 4.61402C501.984 -0.311249 507.606 -5.94289 513.518 -10.8682C507.389 -1.96017 499.893 5.93212 491.305 12.5196C492.112 9.11712 492.449 5.62058 492.305 2.1272Z" fill="black"/>
</g>
<path d="M460.068 -42.8383C460.223 -49.8149 461.738 -64.1263 463.253 -77.1119C464.075 -83.8558 467.41 -90.0455 472.596 -94.4543C477.782 -98.8631 484.441 -101.169 491.252 -100.916H492.66C507.834 -99.4644 515.096 -85.9561 513.232 -71.0062L508.961 -23.8823L479.65 2.48585L473.252 -16.1508L474.223 -25.6433C474.223 -25.6433 459.738 -28.3914 460.068 -42.8383Z" fill="#AE7461"/>
<path d="M242.706 49.1698V72.702H260.176V75H241V49.1698H242.706ZM261.882 70.404V72.702H260.176V70.404H261.882ZM246.118 49.1698V68.1061H260.176V70.404H244.412V49.1698H246.118ZM263.588 70.404H261.882V68.1061H263.588V70.404ZM265.294 68.1061H263.588V65.8081H265.294V68.1061ZM261.882 65.8081V68.1061H260.176V65.8081H261.882ZM260.176 49.1698V65.8081H247.779V49.1698H260.176ZM263.588 65.8081H261.882V46.8939H247.779V44.596H263.588V65.8081ZM267 65.8081H265.294V42.298H247.779V40H267V65.8081ZM247.779 49.1698H246.118V46.8939H247.779V49.1698ZM244.412 49.1698H242.706V46.8939H244.412V49.1698ZM246.118 46.8939H244.412V44.596H246.118V46.8939ZM247.779 44.596H246.118V42.298H247.779V44.596Z" fill="url(#paint1_linear_1461_9292)"/>
</g>
<rect x="0.5" y="0.5" width="525" height="133" rx="11.5" stroke="white"/>
<defs>
<linearGradient id="paint0_linear_1461_9292" x1="82.9219" y1="69.9337" x2="157.189" y2="69.4532" gradientUnits="userSpaceOnUse">
<stop stop-color="#214498"/>
<stop offset="1" stop-color="#7BA2FE"/>
</linearGradient>
<linearGradient id="paint1_linear_1461_9292" x1="267.933" y1="39.6907" x2="242.05" y2="75.9851" gradientUnits="userSpaceOnUse">
<stop stop-color="#9BB8FF"/>
<stop offset="0.45098" stop-color="#3771FE"/>
<stop offset="1" stop-color="#214498"/>
</linearGradient>
<clipPath id="clip0_1461_9292">
<rect width="526" height="134" rx="12" fill="white"/>
</clipPath>
</defs>
</svg>
