<svg width="22" height="22" viewBox="0 0 22 22" fill="none" xmlns="http://www.w3.org/2000/svg">
<path fill-rule="evenodd" clip-rule="evenodd" d="M11.0006 21.2857C16.6812 21.2857 21.2863 16.6806 21.2863 10.9999C21.2863 5.3193 16.6812 0.714233 11.0006 0.714233C5.31991 0.714233 0.714844 5.3193 0.714844 10.9999C0.714844 13.1933 1.40135 15.2262 2.57121 16.8957L1.64991 20.3506L5.16569 19.4717C6.8236 20.6157 8.83384 21.2857 11.0006 21.2857ZM6.93532 4.90551C7.34273 4.90199 7.73678 4.89857 8.00058 5.42842C8.22883 5.88687 8.50951 6.67396 8.84081 7.6142L8.84511 7.6264C8.92247 7.84569 9.04325 8.18809 8.88451 8.41503C8.72279 8.64622 8.36218 9.11146 8.10102 9.4128C8.03413 9.48999 7.90006 9.66662 8.08276 9.9545C8.12818 10.0261 8.16738 10.0994 8.21057 10.1802C8.38455 10.5056 8.62334 10.9523 9.59439 11.8936C10.5745 12.8437 11.8041 13.3906 12.2576 13.5726C12.3808 13.6425 12.6769 13.7361 12.8756 13.5512C12.9669 13.4662 13.139 13.2464 13.3267 13.0066C13.547 12.7251 13.7889 12.4161 13.947 12.2655C13.9518 12.2612 13.9567 12.2567 13.9617 12.2521C14.0674 12.1551 14.2349 12.0015 14.543 12.1249C14.8127 12.2328 15.8475 12.7308 16.6291 13.107C16.7828 13.1809 16.9267 13.2502 17.0531 13.3108C17.1773 13.3502 17.3577 13.4953 17.3577 13.7859C17.3577 14.4418 16.8934 16.3837 14.6367 16.4239C12.38 16.4641 9.66173 15.2838 7.59291 13.0023C5.44923 10.6383 4.81306 9.0579 4.81306 7.61419C4.81306 5.85262 6.04521 4.90609 6.83542 4.90609C6.86877 4.90609 6.90209 4.9058 6.93532 4.90551Z" fill="url(#paint0_linear_1224_1477)"/>
<defs>
<linearGradient id="paint0_linear_1224_1477" x1="20.0005" y1="3.28565" x2="0.714772" y2="21.2856" gradientUnits="userSpaceOnUse">
<stop stop-color="#5BD066"/>
<stop offset="1" stop-color="#27B43E"/>
</linearGradient>
</defs>
</svg>
